<?xml version="1.0" encoding="utf-8"?>
<!-- Generator: Adobe Illustrator 22.1.0, SVG Export Plug-In . SVG Version: 6.00 Build 0)  -->
<svg version="1.1" id="Capa_1" xmlns="http://www.w3.org/2000/svg" xmlns:xlink="http://www.w3.org/1999/xlink" x="0px" y="0px"
	 viewBox="0 0 396.9 99.2" style="enable-background:new 0 0 396.9 99.2;" xml:space="preserve">
<g>
	<g>
		<path d="M101.3,12.6h6.3v20c0,2.3,0.1,2.8,0.5,3.6c0.7,1.4,2.1,2.1,4.2,2.1c2.7,0,4.4-1.3,4.6-3.5c0.1-0.7,0.1-1.1,0.1-2.7V12.6
			h6.2v20.5c0,2.9,0,3.5-0.5,4.8c-0.8,2.4-3.8,5.7-10.3,5.7c-4.6,0-8-1.4-9.8-4.1c-1-1.6-1.3-2.8-1.3-5.7L101.3,12.6L101.3,12.6z"/>
		<path d="M125.5,21.6l5.2-1.5c0.5,0.9,0.8,1.9,0.8,2.8c1.4-1,1.6-1.1,2.6-1.7c1.2-0.6,2.7-1,4-1c2.5,0,4.7,1.3,5.4,3.2
			c0.3,0.8,0.4,1.8,0.4,3.2V43h-5.8V28.5c0-2.5-0.4-3.3-2-3.3c-1.2,0-2.7,0.8-4.1,2v15.9h-5.9V26.8C126.3,24.9,126.1,23,125.5,21.6z
			"/>
		<path d="M151.8,10.8c2,0,3.5,1.6,3.5,3.6s-1.6,3.6-3.6,3.6s-3.6-1.6-3.6-3.6C148.1,12.4,149.7,10.8,151.8,10.8z M148.7,21l5.9-0.9
			v23h-5.9V21z"/>
		<path d="M156.5,21l6-0.7l3.2,10.1c0.5,1.5,1.1,3.9,1.4,5.4c0.2-1.3,0.7-3.5,1.4-5.7l3-9.4h6.1l-8.2,22.4h-4.9L156.5,21z"/>
		<path d="M194.8,37.1l2.3,3.5c-2.6,2.1-5.3,3.1-8.5,3.1c-6.4,0-10.6-4.6-10.6-11.6c0-4,0.8-6.7,2.8-8.9c1.8-2.1,4.1-3,7.1-3
			c2.6,0,5,0.9,6.5,2.4c2.1,2.1,3,5.1,3,9.8c0,0.5,0,0.7,0,1.4h-13V34c0,3.5,1.7,5.4,4.7,5.4C191.1,39.3,193,38.6,194.8,37.1z
			 M184.5,29.4h6.8v-0.3c0-1.7-0.2-2.5-0.7-3.4c-0.6-0.9-1.4-1.3-2.6-1.3C185.7,24.5,184.5,26.2,184.5,29.4L184.5,29.4z"/>
		<path d="M200.3,21.5l5.3-1.4c0.5,0.9,0.8,1.9,0.9,3.2c0.8-1.1,2.2-2.3,3.3-2.8c0.5-0.2,1.3-0.4,1.9-0.4c0.9,0,1.3,0.1,2.2,0.5
			l-1.6,5.2c-0.6-0.3-1.1-0.4-1.7-0.4c-1.3,0-2.5,0.6-3.6,1.9v15.9h-5.9v-15C201.1,25.1,200.8,22.8,200.3,21.5z"/>
		<path d="M230.6,22.1l-1.9,3.9c-2.2-1.1-3.9-1.6-5.5-1.6c-1.7,0-2.8,0.9-2.8,2.2c0,1.1,0.7,1.8,2.8,2.3l2.7,0.7
			c2.8,0.7,3.7,1.5,4.5,2.5c0.8,1.1,1.2,2.3,1.2,3.8c0,4.6-3.9,7.8-9.6,7.8c-2.8,0-5.8-0.9-9.1-2.6l2.1-4.3c1.8,1.1,4.9,2.5,7.4,2.5
			c1.7,0,3-1.1,3-2.5c0-1.5-1.1-2.3-3.5-2.8l-2.6-0.5c-1.5-0.3-3.3-1.3-4.1-2.3s-1.3-2.6-1.3-4c0-4.4,3.5-7.3,8.7-7.3
			C226.1,20,228.5,21.1,230.6,22.1z"/>
		<path d="M237.7,10.8c2,0,3.5,1.6,3.5,3.6s-1.6,3.6-3.6,3.6s-3.6-1.6-3.6-3.6C234,12.4,235.7,10.8,237.7,10.8z M234.7,21l5.9-0.9
			v23h-5.9V21z"/>
		<path d="M263.6,11.6v23.3c0,5.5,0.4,7.3,0.8,8.2h-5.3c-0.2-0.4-0.3-0.7-0.4-1.3c-1.4,1.3-3.2,1.9-5.2,1.9c-5.7,0-9.3-4.4-9.3-11.4
			s3.9-11.8,9.6-11.8c1.6,0,2.9,0.4,4,1.3c-0.1-0.5-0.2-2-0.2-3.3v-7.7L263.6,11.6z M257.8,26.5c-1.1-1-2.1-1.4-3.2-1.4
			c-2.6,0-3.8,2.2-3.8,7.2c0,4.8,1,6.4,4.1,6.4c1.1,0,2.3-0.7,2.9-1.4V26.5z"/>
		<path d="M268.1,23.3c1.4-0.9,2.1-1.2,3.6-1.8c2.2-0.9,4.1-1.3,6.1-1.3c3.8,0,6.4,1.4,7.2,3.9c0.3,0.9,0.4,1.6,0.4,4l-0.1,7.5
			c0,0.1,0,0.3,0,0.4c0,2.4,0.4,3.3,2.1,4.6l-3.1,3.6c-1.4-0.6-2.6-1.6-3.2-2.7c-0.8,0.8-0.9,0.9-1.4,1.2c-1.1,0.8-2.7,1.2-4.5,1.2
			c-5,0-7.7-2.5-7.7-7c0-5.3,3.6-7.7,10.8-7.7c0.4,0,0.7,0,1.3,0v-0.9c0-2.5-0.5-3.3-2.6-3.3c-1.9,0-4.1,0.9-6.5,2.5L268.1,23.3z
			 M279.6,33.2h-0.3c-4.1,0-5.5,0.7-5.5,3.4c0,1.8,1.1,2.9,2.6,2.9c1.1,0,2.2-0.6,3.1-1.5L279.6,33.2z"/>
		<path d="M308.6,11.6v23.3c0,5.5,0.4,7.3,0.8,8.2h-5.3c-0.2-0.4-0.3-0.7-0.4-1.3c-1.4,1.3-3.2,1.9-5.2,1.9c-5.7,0-9.3-4.4-9.3-11.4
			s3.9-11.8,9.6-11.8c1.6,0,2.9,0.4,4,1.3c-0.1-0.5-0.2-2-0.2-3.3v-7.7L308.6,11.6z M302.8,26.5c-1.1-1-2.1-1.4-3.2-1.4
			c-2.6,0-3.8,2.2-3.8,7.2c0,4.8,1,6.4,4.1,6.4c1.1,0,2.3-0.7,2.9-1.4V26.5z"/>
		<path d="M121.7,52.7l-2.8,4.2c-1.5-1.1-3.2-1.7-4.9-1.7c-2.1,0-4.1,1-5.2,2.6c-1.2,1.8-1.7,4.3-1.7,7.8c0,4.2,0.3,6.5,1.3,8.1
			c1.2,2.2,3.2,3.4,5.9,3.4c1.7,0,3.1-0.5,4.6-1.5c0.2-0.1,0.4-0.3,0.6-0.5l2.8,3.9c-2.4,2-5,2.8-8.5,2.8c-4.2,0-7.4-1.4-9.9-4.2
			c-2.5-2.8-3.7-6.4-3.7-10.9c0-3.8,0.7-6.8,2.1-9.5c2.4-4.4,6.7-7.1,11.7-7.1C117,50.3,120.1,51.2,121.7,52.7z"/>
		<path d="M123.2,61.6c1.4-0.9,2.1-1.2,3.6-1.8c2.2-0.9,4.1-1.3,6.1-1.3c3.8,0,6.4,1.4,7.2,3.9c0.3,0.9,0.4,1.6,0.4,4l-0.1,7.5
			c0,0.1,0,0.3,0,0.4c0,2.4,0.4,3.3,2.1,4.6l-3.1,3.6c-1.4-0.6-2.6-1.6-3.2-2.7c-0.8,0.8-0.9,0.9-1.4,1.2c-1.1,0.8-2.7,1.2-4.5,1.2
			c-5,0-7.7-2.5-7.7-7c0-5.3,3.6-7.7,10.8-7.7c0.4,0,0.7,0,1.3,0v-0.9c0-2.5-0.5-3.3-2.6-3.3c-1.9,0-4.1,0.9-6.5,2.5L123.2,61.6z
			 M134.7,71.6h-0.3c-4.1,0-5.5,0.7-5.5,3.4c0,1.8,1.1,2.9,2.6,2.9c1.1,0,2.2-0.6,3.1-1.5L134.7,71.6z"/>
		<path d="M144.7,60l5.3-1.4c0.4,0.6,0.6,1.1,0.8,2.3c1.5-1.5,3.4-2.3,5.5-2.3c1.8,0,3.4,0.6,4.6,1.8c0.3,0.3,0.4,0.5,0.9,1.1
			c2.1-2.1,3.9-2.9,6.4-2.9c1.8,0,3.4,0.5,4.4,1.4c1.3,1.1,1.7,2.4,1.7,5.5v15.9h-5.7V66.6c0-2.7-0.3-3.2-1.8-3.2
			c-1.1,0-2.6,0.7-3.9,1.9v16.1h-5.6V66.8c0-2.8-0.4-3.5-2-3.5c-1.1,0-2.6,0.6-3.9,1.7v16.3h-5.7V65.7
			C145.5,62.5,145.3,61.1,144.7,60z"/>
		<path d="M181.9,49.1c2,0,3.5,1.6,3.5,3.6s-1.6,3.6-3.6,3.6s-3.6-1.6-3.6-3.6C178.3,50.8,179.9,49.1,181.9,49.1z M178.9,59.3
			l5.9-0.9v23h-5.9V59.3z"/>
		<path d="M195.2,49c0.2,1.2,0.3,2.7,0.3,5.8v17.5c0,3.9,0,4.4,0.4,5c0.2,0.4,0.7,0.6,1.2,0.6c0.2,0,0.4,0,0.7-0.1l1,3.5
			c-1,0.4-2.2,0.6-3.5,0.6c-2.5,0-4.5-1.2-5.2-3.1c-0.4-1.1-0.5-1.8-0.5-5V57.1c0-2.9-0.1-4.7-0.3-6.7L195.2,49z"/>
		<path d="M209.3,58.5c3.2,0,5.7,1.1,7.6,3.4c1.8,2.1,2.6,4.6,2.6,8.2c0,3.9-0.9,6.5-2.8,8.7c-1.7,1.9-3.9,3.1-7.4,3.1
			c-6.1,0-10.1-4.6-10.1-11.6C199.2,63.2,203.2,58.5,209.3,58.5z M209.4,62.9c-1.4,0-2.5,0.9-3,2.3c-0.4,1.2-0.6,2.8-0.6,5
			c0,2.6,0.3,4.5,0.7,5.7c0.5,1.2,1.8,1.8,3,1.8c2.5,0,3.6-2.3,3.6-7.6c0-3-0.4-5-1.2-6C211.3,63.3,210.4,62.9,209.4,62.9z"/>
		<path d="M232.7,50.9h6.2v24.5c0,3.9-0.1,4.7-0.4,6c-0.9,3.7-4.3,6.1-7.1,7.1l-2.8-3.2c1.6-1,3-2.5,3.5-3.7
			c0.5-1.1,0.6-2.3,0.6-5.6V50.9z"/>
		<path d="M251.4,58.5c3.2,0,5.7,1.1,7.6,3.4c1.8,2.1,2.6,4.6,2.6,8.2c0,3.9-0.9,6.5-2.8,8.7c-1.7,1.9-3.9,3.1-7.4,3.1
			c-6.1,0-10.1-4.6-10.1-11.6C241.3,63.2,245.3,58.5,251.4,58.5z M251.4,62.9c-1.4,0-2.5,0.9-3,2.3c-0.4,1.2-0.6,2.8-0.6,5
			c0,2.6,0.3,4.5,0.7,5.7c0.5,1.2,1.8,1.8,3,1.8c2.5,0,3.6-2.3,3.6-7.6c0-3-0.4-5-1.2-6C253.4,63.3,252.5,62.9,251.4,62.9z"/>
		<path d="M280.4,60.4l-1.9,3.9c-2.2-1.1-3.9-1.6-5.5-1.6c-1.7,0-2.8,0.9-2.8,2.2c0,1.1,0.7,1.8,2.8,2.3l2.7,0.7
			c2.8,0.7,3.7,1.5,4.5,2.5c0.8,1.1,1.2,2.3,1.2,3.8c0,4.6-3.9,7.8-9.6,7.8c-2.8,0-5.8-0.9-9.1-2.6l2.1-4.3c1.8,1.1,4.9,2.5,7.4,2.5
			c1.7,0,3-1.1,3-2.5c0-1.5-1.1-2.3-3.5-2.8l-2.6-0.5c-1.5-0.3-3.3-1.3-4.1-2.3c-0.8-1-1.3-2.6-1.3-4c0-4.4,3.5-7.3,8.7-7.3
			C276,58.3,278.3,59.4,280.4,60.4z"/>
		<path d="M300,75.4l2.3,3.5c-2.6,2.1-5.3,3.1-8.5,3.1c-6.4,0-10.6-4.6-10.6-11.6c0-4,0.8-6.7,2.8-8.9c1.8-2.1,4.1-3,7.1-3
			c2.6,0,5,0.9,6.5,2.4c2.1,2.1,3,5.1,3,9.8c0,0.5,0,0.7,0,1.4h-13v0.2c0,3.5,1.7,5.4,4.7,5.4C296.3,77.7,298.2,76.9,300,75.4z
			 M297.2,48l2.5,4.6l-9.8,4.4l-1.8-3.2L297.2,48z M289.7,67.8h6.8v-0.3c0-1.7-0.2-2.5-0.7-3.4c-0.6-0.9-1.4-1.3-2.6-1.3
			C291,62.8,289.7,64.6,289.7,67.8L289.7,67.8z"/>
		<path d="M335.2,52.7l-2.8,4.2c-1.5-1.1-3.2-1.7-4.9-1.7c-2.1,0-4.1,1-5.2,2.6c-1.2,1.8-1.7,4.3-1.7,7.8c0,4.2,0.3,6.5,1.3,8.1
			c1.2,2.2,3.2,3.4,5.9,3.4c1.7,0,3.1-0.5,4.6-1.5c0.2-0.1,0.4-0.3,0.6-0.5l2.8,3.9c-2.4,2-5,2.8-8.5,2.8c-4.2,0-7.4-1.4-9.9-4.2
			c-2.5-2.8-3.7-6.4-3.7-10.9c0-3.8,0.7-6.8,2.1-9.5c2.4-4.4,6.7-7.1,11.7-7.1C330.6,50.3,333.6,51.2,335.2,52.7z"/>
		<path d="M353.4,75.4l2.3,3.5c-2.6,2.1-5.3,3.1-8.5,3.1c-6.4,0-10.6-4.6-10.6-11.6c0-4,0.8-6.7,2.8-8.9c1.8-2.1,4.1-3,7.1-3
			c2.6,0,5,0.9,6.5,2.4c2.1,2.1,3,5.1,3,9.8c0,0.5,0,0.7,0,1.4h-13v0.2c0,3.5,1.7,5.4,4.7,5.4C349.7,77.7,351.6,76.9,353.4,75.4z
			 M343,67.8h6.8v-0.3c0-1.7-0.2-2.5-0.7-3.4c-0.6-0.9-1.4-1.3-2.6-1.3C344.3,62.8,343,64.6,343,67.8L343,67.8z"/>
		<path d="M365.1,49c0.2,1.2,0.3,2.7,0.3,5.8v17.5c0,3.9,0,4.4,0.4,5c0.2,0.4,0.7,0.6,1.2,0.6c0.2,0,0.4,0,0.7-0.1l1,3.5
			c-1,0.4-2.2,0.6-3.5,0.6c-2.5,0-4.5-1.2-5.2-3.1c-0.4-1.1-0.5-1.8-0.5-5V57.1c0-2.9-0.1-4.7-0.3-6.7L365.1,49z"/>
		<path d="M369.7,61.6c1.4-0.9,2.1-1.2,3.6-1.8c2.2-0.9,4.1-1.3,6.1-1.3c3.8,0,6.4,1.4,7.2,3.9c0.3,0.9,0.4,1.6,0.4,4l-0.1,7.5
			c0,0.1,0,0.3,0,0.4c0,2.4,0.4,3.3,2.1,4.6l-3.1,3.6c-1.4-0.6-2.6-1.6-3.2-2.7c-0.8,0.8-0.9,0.9-1.4,1.2c-1.1,0.8-2.7,1.2-4.5,1.2
			c-5,0-7.7-2.5-7.7-7c0-5.3,3.6-7.7,10.8-7.7c0.4,0,0.7,0,1.3,0v-0.9c0-2.5-0.5-3.3-2.6-3.3c-1.9,0-4.1,0.9-6.5,2.5L369.7,61.6z
			 M381.3,71.6H381c-4.1,0-5.5,0.7-5.5,3.4c0,1.8,1.1,2.9,2.6,2.9c1.1,0,2.2-0.6,3.1-1.5L381.3,71.6z"/>
	</g>
	<g>
		<path d="M30.9,29.6c0-9.5,7.7-17.2,17.2-17.2s17.2,7.7,17.2,17.2s-7.7,17.2-17.2,17.2C38.7,46.8,30.9,39.1,30.9,29.6"/>
		<path d="M86.2,53.3c-1.1-0.1-2.1,0.6-2.5,1.7c-5.2,12.1-11.3,9.7-15.1,8.5C61.3,61.3,42.9,52.1,32.8,52
			C16.1,51.8,10,68.9,7.8,77.4C7.5,78.7,8.6,80,10,80.1c1.1,0.1,2-0.7,2.5-1.7c5.7-11.2,13.6-9,17.7-7.9
			c7.4,1.9,27.5,10.8,34.4,10.9C79.4,81.6,85.7,67.3,88.4,56C88.7,54.7,87.5,53.4,86.2,53.3z"/>
	</g>
</g>
</svg>
