<svg id="Capa_1" data-name="Capa 1" xmlns="http://www.w3.org/2000/svg" viewBox="0 0 906 98.54"><title>mapa7</title><rect y="0.09" width="906" height="98.46" style="fill:#fff"/><rect x="29.5" y="0.09" width="161" height="98.46" style="fill:#a6a6a6"/><path d="M66,412.68H64.29l-3.41-4.05H59v4.05H57.62V402.5h2.85a8.22,8.22,0,0,1,1.54.12,3.37,3.37,0,0,1,1.11.42,2.67,2.67,0,0,1,.86.88,2.62,2.62,0,0,1,.31,1.35,3,3,0,0,1-.55,1.84,3.4,3.4,0,0,1-1.53,1.12Zm-3.16-7.32a1.71,1.71,0,0,0-.16-.77,1.26,1.26,0,0,0-.51-.57,1.65,1.65,0,0,0-.69-.28,5.27,5.27,0,0,0-1-.08H59v3.84h1.37a5.24,5.24,0,0,0,1.12-.11,1.94,1.94,0,0,0,.82-.42,1.85,1.85,0,0,0,.45-.66A2.56,2.56,0,0,0,62.88,405.36Z" transform="translate(0 -381.2)" style="fill:#f2f2f2"/><path d="M74.06,412.68H67.35V402.5h6.71v1.2H68.71v2.79h5.35v1.2H68.71v3.78h5.35Z" transform="translate(0 -381.2)" style="fill:#f2f2f2"/><path d="M84.7,411.92a13,13,0,0,1-1.82.67,7.15,7.15,0,0,1-4.1,0,4.41,4.41,0,0,1-1.68-1A4.33,4.33,0,0,1,76,409.91a6.4,6.4,0,0,1-.38-2.33,5.16,5.16,0,0,1,1.42-3.85A5.3,5.3,0,0,1,81,402.31a7.84,7.84,0,0,1,1.77.21,9.94,9.94,0,0,1,2,.71v1.61h-.12a7.51,7.51,0,0,0-.62-.43,5.84,5.84,0,0,0-.79-.45,5.6,5.6,0,0,0-1.07-.35,6.18,6.18,0,0,0-1.36-.14,3.43,3.43,0,0,0-2.7,1.1,5,5,0,0,0,0,6,3.74,3.74,0,0,0,2.83,1.1,7.18,7.18,0,0,0,1.31-.13,6.05,6.05,0,0,0,1.15-.34v-2.49H80.63v-1.19H84.7Z" transform="translate(0 -381.2)" style="fill:#f2f2f2"/><path d="M93.5,412.68H87.06V402.5h1.36v9H93.5Z" transform="translate(0 -381.2)" style="fill:#f2f2f2"/><path d="M102.88,412.68h-1.44l-1-2.84H96l-1,2.84H93.67l3.7-10.18h1.81Zm-2.86-4-1.78-5-1.79,5Z" transform="translate(0 -381.2)" style="fill:#f2f2f2"/><path d="M113.49,412.68h-1.35v-8.77l-2.83,6h-.81l-2.81-6v8.77h-1.26V402.5h1.84l2.72,5.67,2.62-5.67h1.88Z" transform="translate(0 -381.2)" style="fill:#f2f2f2"/><path d="M122.93,412.68h-6.7V402.5h6.7v1.2h-5.35v2.79h5.35v1.2h-5.35v3.78h5.35Z" transform="translate(0 -381.2)" style="fill:#f2f2f2"/><path d="M132.84,412.68h-1.67l-4.83-9.11v9.11h-1.26V402.5h2.1l4.4,8.31V402.5h1.26Z" transform="translate(0 -381.2)" style="fill:#f2f2f2"/><path d="M142.81,403.7h-3.64v9h-1.35v-9h-3.64v-1.2h8.63Z" transform="translate(0 -381.2)" style="fill:#f2f2f2"/><path d="M151.42,403.67a4.5,4.5,0,0,1,1,1.67,7.1,7.1,0,0,1,.33,2.25,6.82,6.82,0,0,1-.34,2.25,4.55,4.55,0,0,1-1,1.66,4,4,0,0,1-1.48,1,5.27,5.27,0,0,1-2,.35,5.06,5.06,0,0,1-1.95-.36,4,4,0,0,1-1.5-1,4.56,4.56,0,0,1-.94-1.66,6.82,6.82,0,0,1-.34-2.25,7,7,0,0,1,.33-2.23,4.75,4.75,0,0,1,1-1.69,4,4,0,0,1,1.49-1,5.4,5.4,0,0,1,1.95-.35,5.07,5.07,0,0,1,2,.36A4,4,0,0,1,151.42,403.67Zm-.12,3.92a4.71,4.71,0,0,0-.89-3.06,3.29,3.29,0,0,0-4.86,0,4.71,4.71,0,0,0-.89,3.06,4.63,4.63,0,0,0,.9,3.07,3.29,3.29,0,0,0,4.84,0A4.63,4.63,0,0,0,151.3,407.59Z" transform="translate(0 -381.2)" style="fill:#f2f2f2"/><path d="M162.25,409.77A2.65,2.65,0,0,1,162,411a2.82,2.82,0,0,1-.77,1,4.36,4.36,0,0,1-1.28.69,5.6,5.6,0,0,1-1.75.24,9.21,9.21,0,0,1-2-.2,10.53,10.53,0,0,1-1.79-.61v-1.7h.1a5.52,5.52,0,0,0,1.78,1,5.69,5.69,0,0,0,1.9.35,3.42,3.42,0,0,0,2-.47,1.43,1.43,0,0,0,.7-1.26,1.35,1.35,0,0,0-.33-1,2.22,2.22,0,0,0-1-.49,8.34,8.34,0,0,0-1.11-.23c-.4-.06-.82-.13-1.27-.23a3.66,3.66,0,0,1-2-1,2.68,2.68,0,0,1,.43-3.9,4.44,4.44,0,0,1,2.74-.82,8.69,8.69,0,0,1,2,.21,9.49,9.49,0,0,1,1.58.5v1.6h-.09a4.78,4.78,0,0,0-1.53-.81,5.86,5.86,0,0,0-1.94-.33,3.07,3.07,0,0,0-1.75.45,1.36,1.36,0,0,0-.66,1.17,1.41,1.41,0,0,0,.33,1,2.2,2.2,0,0,0,1.16.56c.29.06.7.14,1.24.23s1,.18,1.37.28a3.57,3.57,0,0,1,1.71.91A2.39,2.39,0,0,1,162.25,409.77Z" transform="translate(0 -381.2)" style="fill:#f2f2f2"/><path d="M59.54,435.49H58a10.88,10.88,0,0,1-1.88-3,10.52,10.52,0,0,1,0-7.39A11,11,0,0,1,58,422h1.57v.07a9.09,9.09,0,0,0-1.06,1.15,9.31,9.31,0,0,0-1.6,3.37,8.77,8.77,0,0,0-.25,2.14,8.43,8.43,0,0,0,.25,2.14,9.61,9.61,0,0,0,.67,1.84,9,9,0,0,0,2,2.67Z" transform="translate(0 -381.2)" style="fill:#f2f2f2"/><path d="M70.51,427.6a5.15,5.15,0,0,1-.61,2.51,4.41,4.41,0,0,1-1.61,1.75,5,5,0,0,1-1.55.63,11.33,11.33,0,0,1-2.26.19H61.91V422.5h2.54a10.55,10.55,0,0,1,2.37.21,5.39,5.39,0,0,1,1.49.59A4.64,4.64,0,0,1,69.93,425,5.33,5.33,0,0,1,70.51,427.6Zm-1.42,0a4.41,4.41,0,0,0-.41-2,3,3,0,0,0-1.25-1.29,4.16,4.16,0,0,0-1.27-.48,9.48,9.48,0,0,0-1.62-.13H63.26v7.85h1.28a8.52,8.52,0,0,0,1.7-.14,3.73,3.73,0,0,0,1.34-.53,3.19,3.19,0,0,0,1.14-1.28A4.64,4.64,0,0,0,69.09,427.58Z" transform="translate(0 -381.2)" style="fill:#f2f2f2"/><path d="M79.4,432.68H72.7V422.5h6.7v1.2H74.05v2.79H79.4v1.2H74.05v3.78H79.4Z" transform="translate(0 -381.2)" style="fill:#f2f2f2"/><path d="M89.41,431.94l-.68.31c-.2.09-.47.19-.8.3a9.14,9.14,0,0,1-.9.22,6.62,6.62,0,0,1-3.09-.22,4.15,4.15,0,0,1-1.58-1,4.57,4.57,0,0,1-1-1.65A6.66,6.66,0,0,1,81,427.6a6.81,6.81,0,0,1,.35-2.25,4.62,4.62,0,0,1,1-1.68,4.29,4.29,0,0,1,1.57-1,5.74,5.74,0,0,1,2-.35,7.07,7.07,0,0,1,1.64.2,8.75,8.75,0,0,1,1.81.7v1.61h-.1a6,6,0,0,0-1.67-1,4.92,4.92,0,0,0-1.77-.32,3.59,3.59,0,0,0-1.39.25,2.94,2.94,0,0,0-1.1.77,3.66,3.66,0,0,0-.74,1.3,5.53,5.53,0,0,0-.26,1.81,5.08,5.08,0,0,0,.29,1.84,3.52,3.52,0,0,0,.75,1.26,2.88,2.88,0,0,0,1.11.75,3.84,3.84,0,0,0,1.35.24,5.05,5.05,0,0,0,1.84-.33,5.38,5.38,0,0,0,1.6-1h.09Z" transform="translate(0 -381.2)" style="fill:#f2f2f2"/><path d="M99.75,432.68H98l-3.4-4.05H92.68v4.05H91.33V422.5h2.85a8.18,8.18,0,0,1,1.53.12,3.37,3.37,0,0,1,1.11.42A2.4,2.4,0,0,1,98,425.27a3,3,0,0,1-.56,1.84,3.37,3.37,0,0,1-1.52,1.12Zm-3.17-7.32a1.86,1.86,0,0,0-.15-.77,1.26,1.26,0,0,0-.51-.57,1.75,1.75,0,0,0-.7-.28,5.19,5.19,0,0,0-1-.08H92.68v3.84h1.37a5.31,5.31,0,0,0,1.12-.11A1.85,1.85,0,0,0,96,427a1.76,1.76,0,0,0,.46-.66A2.8,2.8,0,0,0,96.58,425.36Z" transform="translate(0 -381.2)" style="fill:#f2f2f2"/><path d="M107.77,432.68h-6.71V422.5h6.71v1.2h-5.36v2.79h5.36v1.2h-5.36v3.78h5.36Z" transform="translate(0 -381.2)" style="fill:#f2f2f2"/><path d="M117.17,423.7h-3.63v9h-1.36v-9h-3.64v-1.2h8.63Z" transform="translate(0 -381.2)" style="fill:#f2f2f2"/><path d="M125.79,423.67a4.62,4.62,0,0,1,.95,1.67,7.1,7.1,0,0,1,.33,2.25,6.82,6.82,0,0,1-.34,2.25,4.54,4.54,0,0,1-.94,1.66,4.06,4.06,0,0,1-1.49,1,5.23,5.23,0,0,1-2,.35,5.06,5.06,0,0,1-2-.36,4,4,0,0,1-1.5-1,4.56,4.56,0,0,1-.94-1.66,7.1,7.1,0,0,1-.33-2.25,7.32,7.32,0,0,1,.32-2.23,4.75,4.75,0,0,1,1-1.69,3.91,3.91,0,0,1,1.5-1,5.31,5.31,0,0,1,1.94-.35,5.16,5.16,0,0,1,2,.36A4,4,0,0,1,125.79,423.67Zm-.13,3.92a4.65,4.65,0,0,0-.89-3.06,3.29,3.29,0,0,0-4.86,0,4.71,4.71,0,0,0-.89,3.06,4.63,4.63,0,0,0,.91,3.07,3.28,3.28,0,0,0,4.83,0A4.63,4.63,0,0,0,125.66,427.59Z" transform="translate(0 -381.2)" style="fill:#f2f2f2"/><path d="M142.74,427.6a5.15,5.15,0,0,1-.61,2.51,4.41,4.41,0,0,1-1.61,1.75,5,5,0,0,1-1.55.63,11.33,11.33,0,0,1-2.26.19h-2.57V422.5h2.54a10.61,10.61,0,0,1,2.37.21,5.39,5.39,0,0,1,1.49.59,4.64,4.64,0,0,1,1.62,1.73A5.45,5.45,0,0,1,142.74,427.6Zm-1.42,0a4.54,4.54,0,0,0-.41-2,3,3,0,0,0-1.25-1.29,4.22,4.22,0,0,0-1.28-.48,9.31,9.31,0,0,0-1.62-.13h-1.27v7.85h1.27a8.62,8.62,0,0,0,1.71-.14,3.8,3.8,0,0,0,1.34-.53,3.1,3.1,0,0,0,1.13-1.28A4.48,4.48,0,0,0,141.32,427.58Z" transform="translate(0 -381.2)" style="fill:#f2f2f2"/><path d="M151.63,432.68h-6.7V422.5h6.7v1.2h-5.35v2.79h5.35v1.2h-5.35v3.78h5.35Z" transform="translate(0 -381.2)" style="fill:#f2f2f2"/><path d="M160.22,432.68h-6.44V422.5h1.35v9h5.09Z" transform="translate(0 -381.2)" style="fill:#f2f2f2"/><path d="M69.46,445.57a3.25,3.25,0,0,1-.24,1.26,2.82,2.82,0,0,1-.66,1,3.42,3.42,0,0,1-1.24.79,5.46,5.46,0,0,1-1.81.26H64.16v3.8H62.8V442.5h2.76a7,7,0,0,1,1.56.15,3.55,3.55,0,0,1,1.12.48,2.77,2.77,0,0,1,.9,1A3.08,3.08,0,0,1,69.46,445.57Zm-1.41,0a2.19,2.19,0,0,0-.18-.92,1.55,1.55,0,0,0-.56-.63,2.28,2.28,0,0,0-.75-.31,5.23,5.23,0,0,0-1.06-.09H64.16v4.07H65.3a4.87,4.87,0,0,0,1.33-.15,1.83,1.83,0,0,0,.83-.47,1.94,1.94,0,0,0,.46-.69A2.3,2.3,0,0,0,68.05,445.61Z" transform="translate(0 -381.2)" style="fill:#f2f2f2"/><path d="M79.67,452.68H77.91l-3.4-4.05H72.6v4.05H71.24V442.5H74.1a8.18,8.18,0,0,1,1.53.12,3.37,3.37,0,0,1,1.11.42,2.4,2.4,0,0,1,1.18,2.23,3,3,0,0,1-.56,1.84,3.37,3.37,0,0,1-1.52,1.12Zm-3.17-7.32a1.86,1.86,0,0,0-.15-.77,1.26,1.26,0,0,0-.51-.57,1.75,1.75,0,0,0-.7-.28,5.19,5.19,0,0,0-1-.08H72.6v3.84H74a5.31,5.31,0,0,0,1.12-.11,1.85,1.85,0,0,0,.81-.42,1.73,1.73,0,0,0,.45-.66A2.56,2.56,0,0,0,76.5,445.36Z" transform="translate(0 -381.2)" style="fill:#f2f2f2"/><path d="M87.69,452.68H81V442.5h6.71v1.2H82.33v2.79h5.36v1.2H82.33v3.78h5.36Z" transform="translate(0 -381.2)" style="fill:#f2f2f2"/><path d="M97.23,449.77A2.65,2.65,0,0,1,97,451a2.82,2.82,0,0,1-.77,1,4.36,4.36,0,0,1-1.28.69,5.6,5.6,0,0,1-1.75.24,9.08,9.08,0,0,1-2-.2,10.24,10.24,0,0,1-1.79-.61v-1.7h.1a5.52,5.52,0,0,0,1.78,1,5.65,5.65,0,0,0,1.9.35,3.44,3.44,0,0,0,2-.47,1.43,1.43,0,0,0,.7-1.26,1.35,1.35,0,0,0-.33-1,2.22,2.22,0,0,0-1-.49,8.34,8.34,0,0,0-1.11-.23c-.4-.06-.82-.13-1.27-.23a3.73,3.73,0,0,1-2-1,2.68,2.68,0,0,1,.43-3.9,4.46,4.46,0,0,1,2.74-.82,8.63,8.63,0,0,1,2,.21,9.33,9.33,0,0,1,1.59.5v1.6h-.1a4.68,4.68,0,0,0-1.53-.81,5.8,5.8,0,0,0-1.93-.33,3,3,0,0,0-1.75.45,1.36,1.36,0,0,0-.66,1.17,1.41,1.41,0,0,0,.33,1,2.17,2.17,0,0,0,1.15.56l1.25.23c.54.09,1,.18,1.36.28a3.48,3.48,0,0,1,1.71.91A2.35,2.35,0,0,1,97.23,449.77Z" transform="translate(0 -381.2)" style="fill:#f2f2f2"/><path d="M103,452.68H99v-1h1.33v-8.1H99v-1h4v1h-1.33v8.1H103Z" transform="translate(0 -381.2)" style="fill:#f2f2f2"/><path d="M113.89,447.6a5.26,5.26,0,0,1-.6,2.51,4.41,4.41,0,0,1-1.61,1.75,5,5,0,0,1-1.56.63,11.26,11.26,0,0,1-2.26.19h-2.57V442.5h2.55a10.67,10.67,0,0,1,2.37.21,5.31,5.31,0,0,1,1.48.59,4.49,4.49,0,0,1,1.62,1.73A5.33,5.33,0,0,1,113.89,447.6Zm-1.41,0a4.41,4.41,0,0,0-.42-2,3,3,0,0,0-1.24-1.29,4.22,4.22,0,0,0-1.28-.48,9.31,9.31,0,0,0-1.62-.13h-1.27v7.85h1.27a8.69,8.69,0,0,0,1.71-.14,3.68,3.68,0,0,0,1.33-.53,3.05,3.05,0,0,0,1.14-1.28A4.63,4.63,0,0,0,112.48,447.58Z" transform="translate(0 -381.2)" style="fill:#f2f2f2"/><path d="M122.79,452.68h-6.71V442.5h6.71v1.2h-5.35v2.79h5.35v1.2h-5.35v3.78h5.35Z" transform="translate(0 -381.2)" style="fill:#f2f2f2"/><path d="M132.7,452.68H131l-4.82-9.11v9.11h-1.27V442.5H127l4.41,8.31V442.5h1.26Z" transform="translate(0 -381.2)" style="fill:#f2f2f2"/><path d="M142.67,443.7H139v9h-1.35v-9H134v-1.2h8.63Z" transform="translate(0 -381.2)" style="fill:#f2f2f2"/><path d="M150.74,452.68H144V442.5h6.71v1.2h-5.35v2.79h5.35v1.2h-5.35v3.78h5.35Z" transform="translate(0 -381.2)" style="fill:#f2f2f2"/><path d="M156.64,448.77a9.59,9.59,0,0,1-.67,3.69,10.65,10.65,0,0,1-1.88,3h-1.57v-.07a7.48,7.48,0,0,0,1.06-1.15,8.44,8.44,0,0,0,.93-1.52,9.64,9.64,0,0,0,.68-1.84,8.91,8.91,0,0,0,.25-2.14,8.77,8.77,0,0,0-.26-2.14,9.18,9.18,0,0,0-.67-1.85,8.53,8.53,0,0,0-.93-1.52,8.4,8.4,0,0,0-1.06-1.15V442h1.57a10.79,10.79,0,0,1,1.88,3A9.64,9.64,0,0,1,156.64,448.77Z" transform="translate(0 -381.2)" style="fill:#f2f2f2"/><rect x="240.66" y="0.09" width="161" height="98.46" style="fill:#a6a6a6"/><path d="M279.52,401.68h-1.75l-3.41-4.05h-1.91v4.05H271.1V391.5H274a8.22,8.22,0,0,1,1.54.12,3.37,3.37,0,0,1,1.11.42,2.77,2.77,0,0,1,.86.88,2.62,2.62,0,0,1,.31,1.35,3,3,0,0,1-.55,1.84,3.4,3.4,0,0,1-1.53,1.12Zm-3.16-7.32a1.71,1.71,0,0,0-.16-.77,1.26,1.26,0,0,0-.51-.57,1.65,1.65,0,0,0-.69-.28,5.27,5.27,0,0,0-.95-.08h-1.6v3.84h1.37a5.24,5.24,0,0,0,1.12-.11,1.94,1.94,0,0,0,.82-.42,1.85,1.85,0,0,0,.45-.66A2.56,2.56,0,0,0,276.36,394.36Z" transform="translate(0 -381.2)" style="fill:#f2f2f2"/><path d="M287.54,401.68h-6.71V391.5h6.71v1.2h-5.35v2.79h5.35v1.2h-5.35v3.78h5.35Z" transform="translate(0 -381.2)" style="fill:#f2f2f2"/><path d="M298.18,400.92a13,13,0,0,1-1.82.67,7.15,7.15,0,0,1-4.1,0,4.41,4.41,0,0,1-1.68-1,4.33,4.33,0,0,1-1.09-1.65,6.4,6.4,0,0,1-.38-2.33,5.16,5.16,0,0,1,1.42-3.85,5.3,5.3,0,0,1,3.92-1.42,7.84,7.84,0,0,1,1.77.21,9.94,9.94,0,0,1,1.95.71v1.61h-.12a7.51,7.51,0,0,0-.62-.43,5.05,5.05,0,0,0-1.86-.8,6.18,6.18,0,0,0-1.36-.14,3.43,3.43,0,0,0-2.7,1.1,5,5,0,0,0,0,6,3.74,3.74,0,0,0,2.83,1.1,7.18,7.18,0,0,0,1.31-.13,6.05,6.05,0,0,0,1.15-.34v-2.49h-2.73v-1.19h4.07Z" transform="translate(0 -381.2)" style="fill:#f2f2f2"/><path d="M307,401.68h-6.44V391.5h1.36v9H307Z" transform="translate(0 -381.2)" style="fill:#f2f2f2"/><path d="M316.36,401.68h-1.44l-1-2.84h-4.4l-1,2.84h-1.37l3.7-10.18h1.81Zm-2.86-4-1.78-5-1.79,5Z" transform="translate(0 -381.2)" style="fill:#f2f2f2"/><path d="M327,401.68h-1.35v-8.77l-2.83,6H322l-2.81-6v8.77h-1.26V391.5h1.84l2.71,5.67,2.63-5.67H327Z" transform="translate(0 -381.2)" style="fill:#f2f2f2"/><path d="M336.41,401.68h-6.7V391.5h6.7v1.2h-5.35v2.79h5.35v1.2h-5.35v3.78h5.35Z" transform="translate(0 -381.2)" style="fill:#f2f2f2"/><path d="M346.32,401.68h-1.67l-4.83-9.11v9.11h-1.26V391.5h2.1l4.4,8.31V391.5h1.26Z" transform="translate(0 -381.2)" style="fill:#f2f2f2"/><path d="M356.29,392.7h-3.64v9H351.3v-9h-3.64v-1.2h8.63Z" transform="translate(0 -381.2)" style="fill:#f2f2f2"/><path d="M364.9,392.67a4.64,4.64,0,0,1,1,1.67,7.1,7.1,0,0,1,.33,2.25,6.82,6.82,0,0,1-.34,2.25,4.55,4.55,0,0,1-1,1.66,4,4,0,0,1-1.48,1,5.27,5.27,0,0,1-2,.35,5.06,5.06,0,0,1-1.95-.36,4,4,0,0,1-1.5-1,4.56,4.56,0,0,1-.94-1.66,6.82,6.82,0,0,1-.34-2.25,7,7,0,0,1,.33-2.23,4.75,4.75,0,0,1,1-1.69,4,4,0,0,1,1.49-1,5.4,5.4,0,0,1,1.95-.35,5.07,5.07,0,0,1,2,.36A4,4,0,0,1,364.9,392.67Zm-.12,3.92a4.71,4.71,0,0,0-.89-3.06,3.29,3.29,0,0,0-4.86,0,4.71,4.71,0,0,0-.89,3.06,4.63,4.63,0,0,0,.9,3.07,3.29,3.29,0,0,0,4.84,0A4.63,4.63,0,0,0,364.78,396.59Z" transform="translate(0 -381.2)" style="fill:#f2f2f2"/><path d="M265.91,424.49h-1.57a10.88,10.88,0,0,1-1.88-3,10.52,10.52,0,0,1,0-7.39,11,11,0,0,1,1.88-3h1.57v.07a9.09,9.09,0,0,0-1.06,1.15,9.31,9.31,0,0,0-1.6,3.37,8.77,8.77,0,0,0-.25,2.14,8.43,8.43,0,0,0,.25,2.14,9.61,9.61,0,0,0,.67,1.84,9,9,0,0,0,2,2.67Z" transform="translate(0 -381.2)" style="fill:#f2f2f2"/><path d="M276.88,416.6a5.26,5.26,0,0,1-.6,2.51,4.55,4.55,0,0,1-1.61,1.75,5.11,5.11,0,0,1-1.56.63,11.26,11.26,0,0,1-2.26.19h-2.57V411.5h2.54a10.55,10.55,0,0,1,2.37.21,5.39,5.39,0,0,1,1.49.59A4.64,4.64,0,0,1,276.3,414,5.33,5.33,0,0,1,276.88,416.6Zm-1.42,0a4.41,4.41,0,0,0-.41-2,3,3,0,0,0-1.25-1.29,4.16,4.16,0,0,0-1.27-.48,9.48,9.48,0,0,0-1.62-.13h-1.28v7.85h1.28a8.52,8.52,0,0,0,1.7-.14,3.73,3.73,0,0,0,1.34-.53,3.19,3.19,0,0,0,1.14-1.28A4.64,4.64,0,0,0,275.46,416.58Z" transform="translate(0 -381.2)" style="fill:#f2f2f2"/><path d="M285.77,421.68h-6.7V411.5h6.7v1.2h-5.35v2.79h5.35v1.2h-5.35v3.78h5.35Z" transform="translate(0 -381.2)" style="fill:#f2f2f2"/><path d="M295.78,420.94l-.68.31c-.2.09-.47.19-.8.3a9.14,9.14,0,0,1-.9.22,6.62,6.62,0,0,1-3.09-.22,4.23,4.23,0,0,1-1.58-1,4.57,4.57,0,0,1-1-1.65,6.66,6.66,0,0,1-.37-2.33,6.81,6.81,0,0,1,.35-2.25,4.62,4.62,0,0,1,1-1.68,4.29,4.29,0,0,1,1.57-1,5.74,5.74,0,0,1,2-.35,7.07,7.07,0,0,1,1.64.2,8.75,8.75,0,0,1,1.81.7v1.61h-.1a6,6,0,0,0-1.67-1,4.92,4.92,0,0,0-1.77-.32,3.59,3.59,0,0,0-1.39.25,2.94,2.94,0,0,0-1.1.77,3.66,3.66,0,0,0-.74,1.3,5.53,5.53,0,0,0-.26,1.81,5.08,5.08,0,0,0,.29,1.84,3.52,3.52,0,0,0,.75,1.26,3,3,0,0,0,1.11.75,3.84,3.84,0,0,0,1.35.24,5.05,5.05,0,0,0,1.84-.33,5.38,5.38,0,0,0,1.6-1h.09Z" transform="translate(0 -381.2)" style="fill:#f2f2f2"/><path d="M306.12,421.68h-1.76l-3.4-4.05h-1.91v4.05H297.7V411.5h2.85a8.18,8.18,0,0,1,1.53.12,3.37,3.37,0,0,1,1.11.42,2.4,2.4,0,0,1,1.18,2.23,3,3,0,0,1-.56,1.84,3.37,3.37,0,0,1-1.52,1.12ZM303,414.36a1.86,1.86,0,0,0-.15-.77,1.26,1.26,0,0,0-.51-.57,1.75,1.75,0,0,0-.7-.28,5.19,5.19,0,0,0-.95-.08h-1.59v3.84h1.37a5.31,5.31,0,0,0,1.12-.11,1.85,1.85,0,0,0,.81-.42,1.62,1.62,0,0,0,.45-.66A2.56,2.56,0,0,0,303,414.36Z" transform="translate(0 -381.2)" style="fill:#f2f2f2"/><path d="M314.14,421.68h-6.71V411.5h6.71v1.2h-5.36v2.79h5.36v1.2h-5.36v3.78h5.36Z" transform="translate(0 -381.2)" style="fill:#f2f2f2"/><path d="M323.54,412.7h-3.63v9h-1.36v-9h-3.63v-1.2h8.62Z" transform="translate(0 -381.2)" style="fill:#f2f2f2"/><path d="M332.16,412.67a4.62,4.62,0,0,1,.95,1.67,7.1,7.1,0,0,1,.33,2.25,6.82,6.82,0,0,1-.34,2.25,4.54,4.54,0,0,1-.94,1.66,4.06,4.06,0,0,1-1.49,1,5.23,5.23,0,0,1-2,.35,5.06,5.06,0,0,1-1.95-.36,4,4,0,0,1-1.5-1,4.56,4.56,0,0,1-.94-1.66,7.1,7.1,0,0,1-.33-2.25,7.32,7.32,0,0,1,.32-2.23,4.75,4.75,0,0,1,1-1.69,3.91,3.91,0,0,1,1.5-1,5.31,5.31,0,0,1,1.94-.35,5.16,5.16,0,0,1,2,.36A4,4,0,0,1,332.16,412.67Zm-.13,3.92a4.65,4.65,0,0,0-.89-3.06,3.29,3.29,0,0,0-4.86,0,4.71,4.71,0,0,0-.89,3.06,4.63,4.63,0,0,0,.91,3.07,3.28,3.28,0,0,0,4.83,0A4.63,4.63,0,0,0,332,416.59Z" transform="translate(0 -381.2)" style="fill:#f2f2f2"/><path d="M343,418.77a2.78,2.78,0,0,1-.27,1.18,3,3,0,0,1-.78,1,4.31,4.31,0,0,1-1.27.69,5.67,5.67,0,0,1-1.76.24,9.21,9.21,0,0,1-2-.2,10.15,10.15,0,0,1-1.78-.61v-1.7h.09a6.18,6.18,0,0,0,3.69,1.34,3.47,3.47,0,0,0,2-.47,1.46,1.46,0,0,0,.7-1.26,1.36,1.36,0,0,0-.34-1,2.17,2.17,0,0,0-1-.49,9.06,9.06,0,0,0-1.11-.23c-.4-.06-.83-.13-1.27-.23a3.69,3.69,0,0,1-2-1,2.68,2.68,0,0,1,.43-3.9,4.44,4.44,0,0,1,2.74-.82,8.69,8.69,0,0,1,2,.21,9.49,9.49,0,0,1,1.58.5v1.6h-.09a4.78,4.78,0,0,0-1.53-.81,5.86,5.86,0,0,0-1.94-.33,3,3,0,0,0-1.74.45,1.36,1.36,0,0,0-.66,1.17,1.41,1.41,0,0,0,.32,1,2.2,2.2,0,0,0,1.16.56c.29.06.7.14,1.24.23s1,.18,1.37.28a3.48,3.48,0,0,1,1.71.91A2.39,2.39,0,0,1,343,418.77Z" transform="translate(0 -381.2)" style="fill:#f2f2f2"/><path d="M358.68,416.6a5.15,5.15,0,0,1-.61,2.51,4.41,4.41,0,0,1-1.61,1.75,5,5,0,0,1-1.55.63,11.33,11.33,0,0,1-2.26.19h-2.57V411.5h2.54a10.55,10.55,0,0,1,2.37.21,5.39,5.39,0,0,1,1.49.59A4.64,4.64,0,0,1,358.1,414,5.45,5.45,0,0,1,358.68,416.6Zm-1.42,0a4.41,4.41,0,0,0-.41-2,3,3,0,0,0-1.25-1.29,4.12,4.12,0,0,0-1.28-.48,9.31,9.31,0,0,0-1.62-.13h-1.27v7.85h1.27a8.62,8.62,0,0,0,1.71-.14,3.8,3.8,0,0,0,1.34-.53,3.1,3.1,0,0,0,1.13-1.28A4.48,4.48,0,0,0,357.26,416.58Z" transform="translate(0 -381.2)" style="fill:#f2f2f2"/><path d="M367.57,421.68h-6.7V411.5h6.7v1.2h-5.35v2.79h5.35v1.2h-5.35v3.78h5.35Z" transform="translate(0 -381.2)" style="fill:#f2f2f2"/><path d="M376.16,421.68h-6.44V411.5h1.35v9h5.09Z" transform="translate(0 -381.2)" style="fill:#f2f2f2"/><path d="M294,440.94l-.68.31c-.2.09-.47.19-.8.3a9.14,9.14,0,0,1-.9.22,6.62,6.62,0,0,1-3.09-.22,4.15,4.15,0,0,1-1.58-1,4.57,4.57,0,0,1-1-1.65,6.66,6.66,0,0,1-.37-2.33,6.56,6.56,0,0,1,.36-2.25,4.46,4.46,0,0,1,1-1.68,4.29,4.29,0,0,1,1.57-1,5.74,5.74,0,0,1,2-.35,7.07,7.07,0,0,1,1.64.2,8.75,8.75,0,0,1,1.81.7v1.61h-.1a6,6,0,0,0-1.67-1,4.92,4.92,0,0,0-1.77-.32,3.62,3.62,0,0,0-1.39.25,2.94,2.94,0,0,0-1.1.77,3.66,3.66,0,0,0-.74,1.3,5.81,5.81,0,0,0-.26,1.81,5.08,5.08,0,0,0,.29,1.84,3.52,3.52,0,0,0,.75,1.26,3,3,0,0,0,1.11.75,3.84,3.84,0,0,0,1.35.24,5.05,5.05,0,0,0,1.84-.33,5.38,5.38,0,0,0,1.6-1H294Z" transform="translate(0 -381.2)" style="fill:#f2f2f2"/><path d="M303.54,432.67a4.5,4.5,0,0,1,1,1.67,7.1,7.1,0,0,1,.33,2.25,6.82,6.82,0,0,1-.34,2.25,4.55,4.55,0,0,1-.95,1.66,4,4,0,0,1-1.48,1,5.27,5.27,0,0,1-2,.35,5.06,5.06,0,0,1-2-.36,4,4,0,0,1-1.5-1,4.56,4.56,0,0,1-.94-1.66,6.83,6.83,0,0,1-.33-2.25,7,7,0,0,1,.32-2.23,4.75,4.75,0,0,1,1-1.69,4,4,0,0,1,1.49-1,5.4,5.4,0,0,1,2-.35,5.07,5.07,0,0,1,2,.36A4,4,0,0,1,303.54,432.67Zm-.12,3.92a4.71,4.71,0,0,0-.89-3.06,3.29,3.29,0,0,0-4.86,0,4.71,4.71,0,0,0-.89,3.06,4.57,4.57,0,0,0,.91,3.07,3.28,3.28,0,0,0,4.83,0A4.63,4.63,0,0,0,303.42,436.59Z" transform="translate(0 -381.2)" style="fill:#f2f2f2"/><path d="M314.74,441.68h-1.67l-4.83-9.11v9.11H307V431.5h2.1l4.41,8.31V431.5h1.26Z" transform="translate(0 -381.2)" style="fill:#f2f2f2"/><path d="M324.84,438.77a2.78,2.78,0,0,1-.27,1.18,3,3,0,0,1-.78,1,4.31,4.31,0,0,1-1.27.69,5.67,5.67,0,0,1-1.76.24,9.21,9.21,0,0,1-2-.2,10.15,10.15,0,0,1-1.78-.61v-1.7h.09a6.18,6.18,0,0,0,3.69,1.34,3.44,3.44,0,0,0,2-.47,1.46,1.46,0,0,0,.7-1.26,1.32,1.32,0,0,0-.34-1,2.17,2.17,0,0,0-1-.49,9.06,9.06,0,0,0-1.11-.23c-.4-.06-.83-.13-1.27-.23a3.69,3.69,0,0,1-2-1,2.68,2.68,0,0,1,.43-3.9,4.44,4.44,0,0,1,2.74-.82,8.69,8.69,0,0,1,2,.21,9.2,9.2,0,0,1,1.58.5v1.6h-.09a4.78,4.78,0,0,0-1.53-.81,5.86,5.86,0,0,0-1.94-.33,3,3,0,0,0-1.74.45,1.36,1.36,0,0,0-.66,1.17,1.45,1.45,0,0,0,.32,1,2.2,2.2,0,0,0,1.16.56l1.24.23c.54.09,1,.18,1.37.28a3.48,3.48,0,0,1,1.71.91A2.39,2.39,0,0,1,324.84,438.77Z" transform="translate(0 -381.2)" style="fill:#f2f2f2"/><path d="M333.72,441.68H327V431.5h6.7v1.2h-5.35v2.79h5.35v1.2h-5.35v3.78h5.35Z" transform="translate(0 -381.2)" style="fill:#f2f2f2"/><path d="M339.6,439a2.65,2.65,0,0,1-.81,2.07,3.21,3.21,0,0,1-2.19.72,8.42,8.42,0,0,1-.88-.06,7.9,7.9,0,0,1-.92-.14v-1.26h.08l.69.2a3.86,3.86,0,0,0,.84.1,2.73,2.73,0,0,0,1-.15,1.07,1.07,0,0,0,.55-.41,1.48,1.48,0,0,0,.24-.67,7.9,7.9,0,0,0,.05-.91v-5.94H336.1V431.5h3.5Z" transform="translate(0 -381.2)" style="fill:#f2f2f2"/><path d="M349.82,432.67a4.64,4.64,0,0,1,1,1.67,7.1,7.1,0,0,1,.33,2.25,6.82,6.82,0,0,1-.34,2.25,4.55,4.55,0,0,1-.95,1.66,4,4,0,0,1-1.48,1,5.27,5.27,0,0,1-2,.35,5.06,5.06,0,0,1-1.95-.36,4,4,0,0,1-1.5-1,4.56,4.56,0,0,1-.94-1.66,6.82,6.82,0,0,1-.34-2.25,7,7,0,0,1,.33-2.23,4.75,4.75,0,0,1,1-1.69,4,4,0,0,1,1.49-1,5.4,5.4,0,0,1,1.95-.35,5.07,5.07,0,0,1,2,.36A4,4,0,0,1,349.82,432.67Zm-.12,3.92a4.71,4.71,0,0,0-.89-3.06,3.29,3.29,0,0,0-4.86,0,4.71,4.71,0,0,0-.89,3.06,4.63,4.63,0,0,0,.9,3.07,3.29,3.29,0,0,0,4.84,0A4.63,4.63,0,0,0,349.7,436.59Z" transform="translate(0 -381.2)" style="fill:#f2f2f2"/><path d="M274,456.6a5.15,5.15,0,0,1-.61,2.51,4.41,4.41,0,0,1-1.61,1.75,5,5,0,0,1-1.55.63,11.33,11.33,0,0,1-2.26.19h-2.57V451.5H268a10.55,10.55,0,0,1,2.37.21,5.39,5.39,0,0,1,1.49.59,4.64,4.64,0,0,1,1.62,1.73A5.33,5.33,0,0,1,274,456.6Zm-1.42,0a4.54,4.54,0,0,0-.41-2,3,3,0,0,0-1.25-1.29,4.12,4.12,0,0,0-1.28-.48,9.31,9.31,0,0,0-1.62-.13h-1.27v7.85h1.27a8.55,8.55,0,0,0,1.71-.14,3.73,3.73,0,0,0,1.34-.53,3.1,3.1,0,0,0,1.13-1.28A4.48,4.48,0,0,0,272.61,456.58Z" transform="translate(0 -381.2)" style="fill:#f2f2f2"/><path d="M282.92,461.68h-6.7V451.5h6.7v1.2h-5.35v2.79h5.35v1.2h-5.35v3.78h5.35Z" transform="translate(0 -381.2)" style="fill:#f2f2f2"/><path d="M299.06,461.68H297.7v-8.77l-2.83,6h-.8l-2.81-6v8.77H290V451.5h1.85l2.71,5.67,2.63-5.67h1.88Z" transform="translate(0 -381.2)" style="fill:#f2f2f2"/><path d="M305.38,461.68h-4v-1h1.33v-8.1h-1.33v-1h4v1h-1.33v8.1h1.33Z" transform="translate(0 -381.2)" style="fill:#f2f2f2"/><path d="M315.45,461.68h-1.68L309,452.57v9.11h-1.27V451.5h2.1l4.4,8.31V451.5h1.27Z" transform="translate(0 -381.2)" style="fill:#f2f2f2"/><path d="M321.74,461.68h-4v-1h1.34v-8.1h-1.34v-1h4v1h-1.33v8.1h1.33Z" transform="translate(0 -381.2)" style="fill:#f2f2f2"/><path d="M331.44,458.77a2.78,2.78,0,0,1-.27,1.18,3,3,0,0,1-.78,1,4.31,4.31,0,0,1-1.27.69,5.67,5.67,0,0,1-1.76.24,9.21,9.21,0,0,1-2-.2,10.15,10.15,0,0,1-1.78-.61v-1.7h.09a5.57,5.57,0,0,0,1.79,1,5.65,5.65,0,0,0,1.9.35,3.47,3.47,0,0,0,2-.47A1.46,1.46,0,0,0,330,459a1.35,1.35,0,0,0-.33-1,2.27,2.27,0,0,0-1-.49,9.06,9.06,0,0,0-1.11-.23c-.4-.06-.83-.13-1.27-.23a3.73,3.73,0,0,1-2-1,2.68,2.68,0,0,1,.43-3.9,4.44,4.44,0,0,1,2.74-.82,8.63,8.63,0,0,1,2,.21,9.49,9.49,0,0,1,1.58.5v1.6h-.09a4.78,4.78,0,0,0-1.53-.81,5.86,5.86,0,0,0-1.94-.33,3,3,0,0,0-1.74.45,1.36,1.36,0,0,0-.66,1.17,1.45,1.45,0,0,0,.32,1,2.2,2.2,0,0,0,1.16.56l1.24.23c.54.09,1,.18,1.37.28a3.48,3.48,0,0,1,1.71.91A2.39,2.39,0,0,1,331.44,458.77Z" transform="translate(0 -381.2)" style="fill:#f2f2f2"/><path d="M340.88,452.7h-3.64v9h-1.35v-9h-3.64v-1.2h8.63Z" transform="translate(0 -381.2)" style="fill:#f2f2f2"/><path d="M350.67,461.68h-1.76l-3.4-4.05H343.6v4.05h-1.35V451.5h2.85a8.18,8.18,0,0,1,1.53.12,3.37,3.37,0,0,1,1.11.42,2.4,2.4,0,0,1,1.18,2.23,3,3,0,0,1-.56,1.84,3.37,3.37,0,0,1-1.52,1.12Zm-3.17-7.32a1.86,1.86,0,0,0-.15-.77,1.26,1.26,0,0,0-.51-.57,1.75,1.75,0,0,0-.7-.28,5.19,5.19,0,0,0-.95-.08H343.6v3.84H345a5.31,5.31,0,0,0,1.12-.11,1.85,1.85,0,0,0,.81-.42,1.76,1.76,0,0,0,.46-.66A2.8,2.8,0,0,0,347.5,454.36Z" transform="translate(0 -381.2)" style="fill:#f2f2f2"/><path d="M359.57,452.67a4.62,4.62,0,0,1,.95,1.67,7.1,7.1,0,0,1,.33,2.25,6.82,6.82,0,0,1-.34,2.25,4.54,4.54,0,0,1-.94,1.66,4.06,4.06,0,0,1-1.49,1,5.19,5.19,0,0,1-2,.35,5.13,5.13,0,0,1-1.95-.36,3.91,3.91,0,0,1-1.49-1,4.57,4.57,0,0,1-.95-1.66,7.1,7.1,0,0,1-.33-2.25,7,7,0,0,1,.33-2.23,4.73,4.73,0,0,1,.95-1.69,3.91,3.91,0,0,1,1.5-1,5.31,5.31,0,0,1,1.94-.35,5.12,5.12,0,0,1,2,.36A4,4,0,0,1,359.57,452.67Zm-.13,3.92a4.71,4.71,0,0,0-.88-3.06,3.31,3.31,0,0,0-4.87,0,4.71,4.71,0,0,0-.88,3.06,4.63,4.63,0,0,0,.9,3.07,3,3,0,0,0,2.42,1.06,3,3,0,0,0,2.41-1.06A4.63,4.63,0,0,0,359.44,456.59Z" transform="translate(0 -381.2)" style="fill:#f2f2f2"/><path d="M370.4,458.77a2.8,2.8,0,0,1-.28,1.18,2.85,2.85,0,0,1-.78,1,4.31,4.31,0,0,1-1.27.69,5.67,5.67,0,0,1-1.76.24,9,9,0,0,1-2-.2,10,10,0,0,1-1.79-.61v-1.7h.09a5.57,5.57,0,0,0,1.79,1,5.65,5.65,0,0,0,1.9.35,3.44,3.44,0,0,0,2-.47A1.46,1.46,0,0,0,369,459a1.35,1.35,0,0,0-.33-1,2.27,2.27,0,0,0-1-.49,8.34,8.34,0,0,0-1.11-.23c-.4-.06-.83-.13-1.27-.23a3.73,3.73,0,0,1-2-1,2.68,2.68,0,0,1,.43-3.9,4.44,4.44,0,0,1,2.74-.82,8.63,8.63,0,0,1,2,.21,9.33,9.33,0,0,1,1.59.5v1.6h-.1a4.78,4.78,0,0,0-1.53-.81,5.86,5.86,0,0,0-1.94-.33,3,3,0,0,0-1.74.45,1.36,1.36,0,0,0-.66,1.17,1.41,1.41,0,0,0,.33,1,2.13,2.13,0,0,0,1.15.56l1.25.23c.53.09,1,.18,1.36.28a3.48,3.48,0,0,1,1.71.91A2.4,2.4,0,0,1,370.4,458.77Z" transform="translate(0 -381.2)" style="fill:#f2f2f2"/><path d="M376.32,457.77a9.59,9.59,0,0,1-.67,3.69,10.43,10.43,0,0,1-1.88,3h-1.56v-.07a9,9,0,0,0,2-2.67,10.34,10.34,0,0,0,.67-1.84,8.43,8.43,0,0,0,.25-2.14,8.77,8.77,0,0,0-.25-2.14,9.83,9.83,0,0,0-.67-1.85,9.17,9.17,0,0,0-.94-1.52,8.35,8.35,0,0,0-1.05-1.15V451h1.56a10.57,10.57,0,0,1,1.88,3A9.64,9.64,0,0,1,376.32,457.77Z" transform="translate(0 -381.2)" style="fill:#f2f2f2"/><rect x="480" y="0.09" width="161" height="98.46" style="fill:#a6a6a6"/><path d="M519.87,401.68h-1.76l-3.4-4.05H512.8v4.05h-1.35V391.5h2.84a8.22,8.22,0,0,1,1.54.12,3.37,3.37,0,0,1,1.11.42,2.4,2.4,0,0,1,1.18,2.23,3,3,0,0,1-.56,1.84,3.37,3.37,0,0,1-1.52,1.12Zm-3.17-7.32a1.86,1.86,0,0,0-.15-.77A1.26,1.26,0,0,0,516,393a1.75,1.75,0,0,0-.7-.28,5.19,5.19,0,0,0-1-.08H512.8v3.84h1.37a5.31,5.31,0,0,0,1.12-.11,1.85,1.85,0,0,0,.81-.42,1.73,1.73,0,0,0,.45-.66A2.56,2.56,0,0,0,516.7,394.36Z" transform="translate(0 -381.2)" style="fill:#f2f2f2"/><path d="M527.88,401.68h-6.7V391.5h6.7v1.2h-5.35v2.79h5.35v1.2h-5.35v3.78h5.35Z" transform="translate(0 -381.2)" style="fill:#f2f2f2"/><path d="M538.52,400.92a12.1,12.1,0,0,1-1.82.67,7.12,7.12,0,0,1-4.09,0,4.34,4.34,0,0,1-2.78-2.64,6.62,6.62,0,0,1-.38-2.33,5.17,5.17,0,0,1,1.43-3.85,5.28,5.28,0,0,1,3.91-1.42,7.77,7.77,0,0,1,1.77.21,9.79,9.79,0,0,1,2,.71v1.61h-.13a7,7,0,0,0-.61-.43,5.93,5.93,0,0,0-.8-.45,5.6,5.6,0,0,0-1.07-.35,6.09,6.09,0,0,0-1.35-.14,3.46,3.46,0,0,0-2.71,1.1,4.26,4.26,0,0,0-1,3,4.31,4.31,0,0,0,1,3.07,3.71,3.71,0,0,0,2.83,1.1,7.27,7.27,0,0,0,1.31-.13,6.16,6.16,0,0,0,1.14-.34v-2.49h-2.72v-1.19h4.06Z" transform="translate(0 -381.2)" style="fill:#f2f2f2"/><path d="M547.33,401.68h-6.44V391.5h1.35v9h5.09Z" transform="translate(0 -381.2)" style="fill:#f2f2f2"/><path d="M556.71,401.68h-1.45l-1-2.84h-4.41l-1,2.84h-1.38l3.71-10.18H553Zm-2.86-4-1.79-5-1.79,5Z" transform="translate(0 -381.2)" style="fill:#f2f2f2"/><path d="M567.31,401.68H566v-8.77l-2.83,6h-.81l-2.8-6v8.77h-1.27V391.5h1.85l2.71,5.67,2.63-5.67h1.87Z" transform="translate(0 -381.2)" style="fill:#f2f2f2"/><path d="M576.76,401.68h-6.71V391.5h6.71v1.2H571.4v2.79h5.36v1.2H571.4v3.78h5.36Z" transform="translate(0 -381.2)" style="fill:#f2f2f2"/><path d="M586.67,401.68H585l-4.82-9.11v9.11H578.9V391.5H581l4.4,8.31V391.5h1.27Z" transform="translate(0 -381.2)" style="fill:#f2f2f2"/><path d="M596.63,392.7H593v9h-1.36v-9H588v-1.2h8.62Z" transform="translate(0 -381.2)" style="fill:#f2f2f2"/><path d="M605.25,392.67a4.62,4.62,0,0,1,1,1.67,7.1,7.1,0,0,1,.33,2.25,6.82,6.82,0,0,1-.34,2.25,4.54,4.54,0,0,1-.94,1.66,4.06,4.06,0,0,1-1.49,1,5.19,5.19,0,0,1-2,.35,5.13,5.13,0,0,1-1.95-.36,4,4,0,0,1-1.49-1,4.57,4.57,0,0,1-1-1.66,7.1,7.1,0,0,1-.33-2.25,7,7,0,0,1,.33-2.23,4.73,4.73,0,0,1,1-1.69,3.91,3.91,0,0,1,1.5-1,5.31,5.31,0,0,1,1.94-.35,5.12,5.12,0,0,1,2,.36A4,4,0,0,1,605.25,392.67Zm-.12,3.92a4.71,4.71,0,0,0-.89-3.06,3.31,3.31,0,0,0-4.87,0,4.71,4.71,0,0,0-.88,3.06,4.63,4.63,0,0,0,.9,3.07,3.29,3.29,0,0,0,4.84,0A4.68,4.68,0,0,0,605.13,396.59Z" transform="translate(0 -381.2)" style="fill:#f2f2f2"/><path d="M513.94,424.49h-1.57a10.65,10.65,0,0,1-1.88-3,10.52,10.52,0,0,1,0-7.39,10.79,10.79,0,0,1,1.88-3h1.57v.07a8.4,8.4,0,0,0-1.06,1.15,8.53,8.53,0,0,0-.93,1.52,9.18,9.18,0,0,0-.67,1.85,8.77,8.77,0,0,0-.26,2.14,8.91,8.91,0,0,0,.25,2.14,9.64,9.64,0,0,0,.68,1.84,8.44,8.44,0,0,0,.93,1.52,8,8,0,0,0,1.06,1.15Z" transform="translate(0 -381.2)" style="fill:#f2f2f2"/><path d="M524.17,420.94l-.68.31c-.2.09-.47.19-.8.3a9.14,9.14,0,0,1-.9.22,6.62,6.62,0,0,1-3.09-.22,4.15,4.15,0,0,1-1.58-1,4.44,4.44,0,0,1-1-1.65,6.66,6.66,0,0,1-.37-2.33,6.81,6.81,0,0,1,.35-2.25,4.62,4.62,0,0,1,1-1.68,4.21,4.21,0,0,1,1.57-1,5.74,5.74,0,0,1,2-.35,7.14,7.14,0,0,1,1.64.2,9,9,0,0,1,1.81.7v1.61h-.1a6,6,0,0,0-1.67-1,4.92,4.92,0,0,0-1.77-.32,3.59,3.59,0,0,0-1.39.25,3.05,3.05,0,0,0-1.11.77,3.64,3.64,0,0,0-.73,1.3,5.53,5.53,0,0,0-.26,1.81,5.08,5.08,0,0,0,.29,1.84,3.65,3.65,0,0,0,.74,1.26,3,3,0,0,0,1.12.75,3.84,3.84,0,0,0,1.35.24,5,5,0,0,0,1.83-.33,5.26,5.26,0,0,0,1.6-1h.1Z" transform="translate(0 -381.2)" style="fill:#f2f2f2"/><path d="M533.67,412.67a4.64,4.64,0,0,1,1,1.67,7.72,7.72,0,0,1,0,4.5,4.55,4.55,0,0,1-1,1.66,4,4,0,0,1-1.48,1,5.27,5.27,0,0,1-2,.35,5.06,5.06,0,0,1-2-.36,4,4,0,0,1-1.5-1,4.72,4.72,0,0,1-.95-1.66,7.1,7.1,0,0,1-.33-2.25,7,7,0,0,1,.33-2.23,4.75,4.75,0,0,1,1-1.69,4,4,0,0,1,1.49-1,5.4,5.4,0,0,1,2-.35,5.07,5.07,0,0,1,2,.36A4,4,0,0,1,533.67,412.67Zm-.12,3.92a4.71,4.71,0,0,0-.89-3.06,3.29,3.29,0,0,0-4.86,0,4.71,4.71,0,0,0-.89,3.06,4.63,4.63,0,0,0,.9,3.07,3.29,3.29,0,0,0,4.84,0A4.63,4.63,0,0,0,533.55,416.59Z" transform="translate(0 -381.2)" style="fill:#f2f2f2"/><path d="M546.17,421.68h-1.36v-8.77l-2.83,6h-.8l-2.81-6v8.77H537.1V411.5H539l2.71,5.67,2.63-5.67h1.88Z" transform="translate(0 -381.2)" style="fill:#f2f2f2"/><path d="M552.49,421.68h-4v-1h1.33v-8.1h-1.33v-1h4v1h-1.33v8.1h1.33Z" transform="translate(0 -381.2)" style="fill:#f2f2f2"/><path d="M562.19,418.77a2.65,2.65,0,0,1-.28,1.18,2.82,2.82,0,0,1-.77,1,4.36,4.36,0,0,1-1.28.69,5.6,5.6,0,0,1-1.75.24,9.21,9.21,0,0,1-2-.2,10.53,10.53,0,0,1-1.79-.61v-1.7h.1a5.63,5.63,0,0,0,1.78,1,5.69,5.69,0,0,0,1.9.35,3.42,3.42,0,0,0,2-.47,1.43,1.43,0,0,0,.7-1.26,1.35,1.35,0,0,0-.33-1,2.22,2.22,0,0,0-1-.49,8.34,8.34,0,0,0-1.11-.23c-.4-.06-.82-.13-1.27-.23a3.66,3.66,0,0,1-2-1,2.68,2.68,0,0,1,.43-3.9,4.44,4.44,0,0,1,2.74-.82,8.69,8.69,0,0,1,2,.21,9.49,9.49,0,0,1,1.58.5v1.6h-.09a4.78,4.78,0,0,0-1.53-.81,5.86,5.86,0,0,0-1.94-.33,3.07,3.07,0,0,0-1.75.45,1.36,1.36,0,0,0-.66,1.17,1.41,1.41,0,0,0,.33,1,2.2,2.2,0,0,0,1.16.56c.29.06.7.14,1.24.23s1,.18,1.37.28a3.57,3.57,0,0,1,1.71.91A2.39,2.39,0,0,1,562.19,418.77Z" transform="translate(0 -381.2)" style="fill:#f2f2f2"/><path d="M568,421.68h-4v-1h1.34v-8.1h-1.34v-1h4v1h-1.33v8.1H568Z" transform="translate(0 -381.2)" style="fill:#f2f2f2"/><path d="M577.85,412.67a4.62,4.62,0,0,1,.95,1.67,7.1,7.1,0,0,1,.33,2.25,6.82,6.82,0,0,1-.34,2.25,4.54,4.54,0,0,1-.94,1.66,4.06,4.06,0,0,1-1.49,1,5.23,5.23,0,0,1-2,.35,5.09,5.09,0,0,1-1.95-.36,3.91,3.91,0,0,1-1.49-1,4.44,4.44,0,0,1-1-1.66,7.1,7.1,0,0,1-.33-2.25,7.32,7.32,0,0,1,.32-2.23,4.75,4.75,0,0,1,1-1.69,3.91,3.91,0,0,1,1.5-1,5.31,5.31,0,0,1,1.94-.35,5.12,5.12,0,0,1,2,.36A4,4,0,0,1,577.85,412.67Zm-.13,3.92a4.65,4.65,0,0,0-.89-3.06,3.29,3.29,0,0,0-4.86,0,4.71,4.71,0,0,0-.89,3.06,4.63,4.63,0,0,0,.91,3.07,3.28,3.28,0,0,0,4.83,0A4.63,4.63,0,0,0,577.72,416.59Z" transform="translate(0 -381.2)" style="fill:#f2f2f2"/><path d="M589,421.68h-1.67l-4.83-9.11v9.11h-1.26V411.5h2.1l4.4,8.31V411.5H589Z" transform="translate(0 -381.2)" style="fill:#f2f2f2"/><path d="M598.46,421.68h-6.71V411.5h6.71v1.2H593.1v2.79h5.36v1.2H593.1v3.78h5.36Z" transform="translate(0 -381.2)" style="fill:#f2f2f2"/><path d="M608,418.77a2.65,2.65,0,0,1-.28,1.18,2.82,2.82,0,0,1-.77,1,4.36,4.36,0,0,1-1.28.69,5.6,5.6,0,0,1-1.75.24,9.08,9.08,0,0,1-2-.2,10.24,10.24,0,0,1-1.79-.61v-1.7h.1a5.52,5.52,0,0,0,1.78,1,5.69,5.69,0,0,0,1.9.35,3.44,3.44,0,0,0,2-.47,1.43,1.43,0,0,0,.7-1.26,1.35,1.35,0,0,0-.33-1,2.22,2.22,0,0,0-1-.49,8.34,8.34,0,0,0-1.11-.23c-.4-.06-.82-.13-1.27-.23a3.66,3.66,0,0,1-2-1,2.67,2.67,0,0,1,.42-3.9,4.46,4.46,0,0,1,2.74-.82,8.56,8.56,0,0,1,2,.21,9.33,9.33,0,0,1,1.59.5v1.6h-.1a4.58,4.58,0,0,0-1.53-.81,5.8,5.8,0,0,0-1.93-.33,3,3,0,0,0-1.75.45,1.36,1.36,0,0,0-.66,1.17,1.41,1.41,0,0,0,.33,1,2.17,2.17,0,0,0,1.15.56l1.25.23c.54.09,1,.18,1.37.28a3.49,3.49,0,0,1,1.7.91A2.35,2.35,0,0,1,608,418.77Z" transform="translate(0 -381.2)" style="fill:#f2f2f2"/><path d="M524.66,436.6a5.15,5.15,0,0,1-.61,2.51,4.41,4.41,0,0,1-1.61,1.75,5,5,0,0,1-1.55.63,11.33,11.33,0,0,1-2.26.19h-2.57V431.5h2.54a10.61,10.61,0,0,1,2.37.21,5.39,5.39,0,0,1,1.49.59,4.64,4.64,0,0,1,1.62,1.73A5.45,5.45,0,0,1,524.66,436.6Zm-1.42,0a4.54,4.54,0,0,0-.41-2,3,3,0,0,0-1.25-1.29,4.12,4.12,0,0,0-1.28-.48,9.31,9.31,0,0,0-1.62-.13h-1.27v7.85h1.27a8.62,8.62,0,0,0,1.71-.14,3.73,3.73,0,0,0,1.34-.53,3.1,3.1,0,0,0,1.13-1.28A4.48,4.48,0,0,0,523.24,436.58Z" transform="translate(0 -381.2)" style="fill:#f2f2f2"/><path d="M533.55,441.68h-6.7V431.5h6.7v1.2H528.2v2.79h5.35v1.2H528.2v3.78h5.35Z" transform="translate(0 -381.2)" style="fill:#f2f2f2"/><path d="M542.14,441.68H535.7V431.5h1.35v9h5.09Z" transform="translate(0 -381.2)" style="fill:#f2f2f2"/><path d="M550.2,441.68h-6.71V431.5h6.71v1.2h-5.35v2.79h5.35v1.2h-5.35v3.78h5.35Z" transform="translate(0 -381.2)" style="fill:#f2f2f2"/><path d="M560.83,440.92a12.1,12.1,0,0,1-1.82.67,7.12,7.12,0,0,1-4.09,0,4.53,4.53,0,0,1-1.69-1,4.31,4.31,0,0,1-1.08-1.65,6.39,6.39,0,0,1-.39-2.33,5.17,5.17,0,0,1,1.43-3.85,5.28,5.28,0,0,1,3.91-1.42,7.92,7.92,0,0,1,1.78.21,9.94,9.94,0,0,1,2,.71v1.61h-.12c-.15-.11-.35-.26-.62-.43a5.05,5.05,0,0,0-1.86-.8,6.18,6.18,0,0,0-1.36-.14,3.43,3.43,0,0,0-2.7,1.1,4.22,4.22,0,0,0-1,3,4.31,4.31,0,0,0,1,3.07,3.72,3.72,0,0,0,2.83,1.1,7.27,7.27,0,0,0,1.31-.13,5.73,5.73,0,0,0,1.14-.34v-2.49h-2.72v-1.19h4.06Z" transform="translate(0 -381.2)" style="fill:#f2f2f2"/><path d="M571.22,441.68h-1.44l-1-2.84h-4.41l-1,2.84H562l3.7-10.18h1.81Zm-2.85-4-1.79-5-1.79,5Z" transform="translate(0 -381.2)" style="fill:#f2f2f2"/><path d="M581.37,436.6a5.15,5.15,0,0,1-.61,2.51,4.41,4.41,0,0,1-1.61,1.75,5,5,0,0,1-1.55.63,11.33,11.33,0,0,1-2.26.19h-2.57V431.5h2.54a10.55,10.55,0,0,1,2.37.21,5.39,5.39,0,0,1,1.49.59,4.64,4.64,0,0,1,1.62,1.73A5.33,5.33,0,0,1,581.37,436.6Zm-1.41,0a4.41,4.41,0,0,0-.42-2,3,3,0,0,0-1.25-1.29,4.16,4.16,0,0,0-1.27-.48,9.52,9.52,0,0,0-1.63-.13h-1.27v7.85h1.27a8.55,8.55,0,0,0,1.71-.14,3.73,3.73,0,0,0,1.34-.53,3.19,3.19,0,0,0,1.14-1.28A4.63,4.63,0,0,0,580,436.58Z" transform="translate(0 -381.2)" style="fill:#f2f2f2"/><path d="M591.58,441.68h-1.44l-1-2.84h-4.4l-1,2.84h-1.37l3.7-10.18h1.81Zm-2.86-4-1.78-5-1.79,5Z" transform="translate(0 -381.2)" style="fill:#f2f2f2"/><path d="M600.46,438.77a2.8,2.8,0,0,1-.28,1.18,2.85,2.85,0,0,1-.78,1,4.31,4.31,0,0,1-1.27.69,5.65,5.65,0,0,1-1.75.24,9.08,9.08,0,0,1-2-.2,10,10,0,0,1-1.79-.61v-1.7h.09a5.57,5.57,0,0,0,1.79,1,5.65,5.65,0,0,0,1.9.35,3.44,3.44,0,0,0,2-.47,1.46,1.46,0,0,0,.7-1.26,1.35,1.35,0,0,0-.33-1,2.27,2.27,0,0,0-1-.49,8.34,8.34,0,0,0-1.11-.23c-.4-.06-.82-.13-1.27-.23a3.73,3.73,0,0,1-2-1,2.68,2.68,0,0,1,.43-3.9,4.44,4.44,0,0,1,2.74-.82,8.63,8.63,0,0,1,2,.21,9.2,9.2,0,0,1,1.58.5v1.6H600a4.78,4.78,0,0,0-1.53-.81,5.86,5.86,0,0,0-1.94-.33,3,3,0,0,0-1.74.45,1.36,1.36,0,0,0-.66,1.17,1.41,1.41,0,0,0,.33,1,2.17,2.17,0,0,0,1.15.56l1.24.23c.54.09,1,.18,1.37.28a3.48,3.48,0,0,1,1.71.91A2.4,2.4,0,0,1,600.46,438.77Z" transform="translate(0 -381.2)" style="fill:#f2f2f2"/><path d="M606.38,437.77a9.59,9.59,0,0,1-.67,3.69,10.43,10.43,0,0,1-1.88,3h-1.56v-.07a9,9,0,0,0,2-2.67,10.34,10.34,0,0,0,.67-1.84,8.43,8.43,0,0,0,.25-2.14,9.29,9.29,0,0,0-.25-2.14,9.83,9.83,0,0,0-.67-1.85,9.17,9.17,0,0,0-.94-1.52,8.35,8.35,0,0,0-1.05-1.15V431h1.56a10.57,10.57,0,0,1,1.88,3A9.64,9.64,0,0,1,606.38,437.77Z" transform="translate(0 -381.2)" style="fill:#f2f2f2"/><path d="M521.65,461.68h-6.44V451.5h1.36v9h5.08Z" transform="translate(0 -381.2)" style="fill:#f2f2f2"/><path d="M529.71,461.68H523V451.5h6.7v1.2h-5.35v2.79h5.35v1.2h-5.35v3.78h5.35Z" transform="translate(0 -381.2)" style="fill:#f2f2f2"/><path d="M540.35,460.92a12.52,12.52,0,0,1-1.82.67,7.12,7.12,0,0,1-4.09,0,4.34,4.34,0,0,1-2.78-2.64,6.62,6.62,0,0,1-.38-2.33,5.13,5.13,0,0,1,1.43-3.85,5.26,5.26,0,0,1,3.91-1.42,7.77,7.77,0,0,1,1.77.21,9.5,9.5,0,0,1,2,.71v1.61h-.12a7,7,0,0,0-.61-.43,5.93,5.93,0,0,0-.8-.45,5.6,5.6,0,0,0-1.07-.35,6.15,6.15,0,0,0-1.35-.14,3.46,3.46,0,0,0-2.71,1.1,5,5,0,0,0,.05,6,3.71,3.71,0,0,0,2.83,1.1,7.36,7.36,0,0,0,1.31-.13,6.16,6.16,0,0,0,1.14-.34v-2.49h-2.73v-1.19h4.07Z" transform="translate(0 -381.2)" style="fill:#f2f2f2"/><path d="M546.3,461.68h-4v-1h1.33v-8.1h-1.33v-1h4v1H545v8.1h1.33Z" transform="translate(0 -381.2)" style="fill:#f2f2f2"/><path d="M556,458.77a2.78,2.78,0,0,1-.27,1.18,2.85,2.85,0,0,1-.78,1,4.31,4.31,0,0,1-1.27.69,5.67,5.67,0,0,1-1.76.24,9,9,0,0,1-2-.2,10,10,0,0,1-1.79-.61v-1.7h.09a5.57,5.57,0,0,0,1.79,1,5.65,5.65,0,0,0,1.9.35,3.44,3.44,0,0,0,2-.47,1.46,1.46,0,0,0,.7-1.26,1.35,1.35,0,0,0-.33-1,2.27,2.27,0,0,0-1-.49,8.69,8.69,0,0,0-1.11-.23c-.4-.06-.83-.13-1.27-.23a3.73,3.73,0,0,1-2-1,2.68,2.68,0,0,1,.43-3.9,4.44,4.44,0,0,1,2.74-.82,8.63,8.63,0,0,1,2,.21,9.2,9.2,0,0,1,1.58.5v1.6h-.09a4.78,4.78,0,0,0-1.53-.81,5.86,5.86,0,0,0-1.94-.33,3,3,0,0,0-1.74.45,1.36,1.36,0,0,0-.66,1.17,1.41,1.41,0,0,0,.33,1,2.13,2.13,0,0,0,1.15.56l1.24.23c.54.09,1,.18,1.37.28a3.48,3.48,0,0,1,1.71.91A2.39,2.39,0,0,1,556,458.77Z" transform="translate(0 -381.2)" style="fill:#f2f2f2"/><path d="M564.62,461.68h-6.44V451.5h1.35v9h5.09Z" transform="translate(0 -381.2)" style="fill:#f2f2f2"/><path d="M574,461.68h-1.45l-1-2.84h-4.41l-1,2.84h-1.38l3.71-10.18h1.8Zm-2.86-4-1.78-5-1.8,5Z" transform="translate(0 -381.2)" style="fill:#f2f2f2"/><path d="M582,452.7h-3.64v9H577v-9h-3.64v-1.2H582Z" transform="translate(0 -381.2)" style="fill:#f2f2f2"/><path d="M586.94,461.68h-4v-1h1.33v-8.1h-1.33v-1h4v1H585.6v8.1h1.34Z" transform="translate(0 -381.2)" style="fill:#f2f2f2"/><path d="M597.27,451.5l-3.71,10.18h-1.8l-3.71-10.18h1.45l3.19,8.95,3.2-8.95Z" transform="translate(0 -381.2)" style="fill:#f2f2f2"/><path d="M606.4,452.67a4.62,4.62,0,0,1,1,1.67,7.84,7.84,0,0,1,0,4.5,4.7,4.7,0,0,1-1,1.66,4.06,4.06,0,0,1-1.49,1,5.19,5.19,0,0,1-2,.35,5.13,5.13,0,0,1-2-.36,4,4,0,0,1-1.49-1,4.57,4.57,0,0,1-1-1.66,7.1,7.1,0,0,1-.33-2.25,7,7,0,0,1,.33-2.23,4.75,4.75,0,0,1,1-1.69,3.87,3.87,0,0,1,1.49-1,5.31,5.31,0,0,1,1.94-.35,5.12,5.12,0,0,1,2,.36A4,4,0,0,1,606.4,452.67Zm-.12,3.92a4.71,4.71,0,0,0-.89-3.06,3.31,3.31,0,0,0-4.87,0,4.71,4.71,0,0,0-.88,3.06,4.63,4.63,0,0,0,.9,3.07,3.29,3.29,0,0,0,4.84,0A4.63,4.63,0,0,0,606.28,456.59Z" transform="translate(0 -381.2)" style="fill:#f2f2f2"/><rect x="715.5" width="161" height="98.46" style="fill:#a6a6a6"/><path d="M757.83,414.59h-1.76l-3.4-4h-1.91v4h-1.35V404.41h2.85a8.18,8.18,0,0,1,1.53.12,3.1,3.1,0,0,1,1.11.43,2.61,2.61,0,0,1,.87.88,2.68,2.68,0,0,1,.31,1.34,3,3,0,0,1-.56,1.84,3.3,3.3,0,0,1-1.52,1.12Zm-3.17-7.31a1.94,1.94,0,0,0-.15-.78,1.32,1.32,0,0,0-.51-.57,2.1,2.1,0,0,0-.7-.28,5.27,5.27,0,0,0-.95-.07h-1.59v3.84h1.37a4.69,4.69,0,0,0,1.12-.12,1.66,1.66,0,0,0,.81-.42,1.76,1.76,0,0,0,.46-.66A2.74,2.74,0,0,0,754.66,407.28Z" transform="translate(0 -381.2)" style="fill:#f2f2f2"/><path d="M765.85,414.59h-6.71V404.41h6.71v1.21h-5.36v2.79h5.36v1.2h-5.36v3.78h5.36Z" transform="translate(0 -381.2)" style="fill:#f2f2f2"/><path d="M776.48,413.84a13.3,13.3,0,0,1-1.82.67,7,7,0,0,1-4.09-.05,4.28,4.28,0,0,1-2.78-2.64,6.58,6.58,0,0,1-.38-2.33,5.18,5.18,0,0,1,1.43-3.85,5.31,5.31,0,0,1,3.91-1.41,7.77,7.77,0,0,1,1.77.21,9.71,9.71,0,0,1,2,.7v1.61h-.13c-.14-.11-.34-.25-.61-.43a4.85,4.85,0,0,0-.79-.44,6.1,6.1,0,0,0-1.07-.36,6.25,6.25,0,0,0-1.36-.14,3.5,3.5,0,0,0-2.71,1.1,5,5,0,0,0,.05,6,3.72,3.72,0,0,0,2.83,1.1,6.47,6.47,0,0,0,1.31-.13,7.08,7.08,0,0,0,1.14-.33v-2.5h-2.72v-1.19h4.06Z" transform="translate(0 -381.2)" style="fill:#f2f2f2"/><path d="M785.29,414.59h-6.44V404.41h1.35v9h5.09Z" transform="translate(0 -381.2)" style="fill:#f2f2f2"/><path d="M794.67,414.59h-1.45l-1-2.84h-4.41l-1,2.84h-1.38l3.71-10.18H791Zm-2.86-4-1.78-5-1.8,5Z" transform="translate(0 -381.2)" style="fill:#f2f2f2"/><path d="M805.28,414.59h-1.36v-8.77l-2.83,6h-.8l-2.81-6v8.77h-1.27V404.41h1.85l2.71,5.67,2.63-5.67h1.88Z" transform="translate(0 -381.2)" style="fill:#f2f2f2"/><path d="M814.72,414.59H808V404.41h6.71v1.21h-5.36v2.79h5.36v1.2h-5.36v3.78h5.36Z" transform="translate(0 -381.2)" style="fill:#f2f2f2"/><path d="M824.63,414.59H823l-4.82-9.1v9.1h-1.27V404.41H819l4.4,8.32v-8.32h1.27Z" transform="translate(0 -381.2)" style="fill:#f2f2f2"/><path d="M834.6,405.62H831v9h-1.35v-9H826v-1.21h8.63Z" transform="translate(0 -381.2)" style="fill:#f2f2f2"/><path d="M843.21,405.58a4.75,4.75,0,0,1,.95,1.68,7.1,7.1,0,0,1,.33,2.25,7.19,7.19,0,0,1-.33,2.25,4.88,4.88,0,0,1-.95,1.66,4.18,4.18,0,0,1-1.49,1,5.2,5.2,0,0,1-2,.34,5.33,5.33,0,0,1-2-.35,4.11,4.11,0,0,1-1.49-1,4.71,4.71,0,0,1-1-1.67,7,7,0,0,1-.33-2.24,7.08,7.08,0,0,1,.33-2.24,5,5,0,0,1,1-1.69,3.85,3.85,0,0,1,1.5-1,5.49,5.49,0,0,1,3.91,0A4.17,4.17,0,0,1,843.21,405.58Zm-.12,3.93a4.67,4.67,0,0,0-.89-3.06,3.29,3.29,0,0,0-4.87,0,4.67,4.67,0,0,0-.88,3.06,4.62,4.62,0,0,0,.9,3.06,3.29,3.29,0,0,0,4.84,0A4.62,4.62,0,0,0,843.09,409.51Z" transform="translate(0 -381.2)" style="fill:#f2f2f2"/><path d="M770.94,437.41h-1.57a10.93,10.93,0,0,1-1.88-3,10.55,10.55,0,0,1,0-7.4,10.74,10.74,0,0,1,1.88-3h1.57V424a9,9,0,0,0-1.06,1.15,8.63,8.63,0,0,0-.93,1.53,9,9,0,0,0-.67,1.85,8.63,8.63,0,0,0-.26,2.13,8.91,8.91,0,0,0,.25,2.14,9.74,9.74,0,0,0,.68,1.85,8.81,8.81,0,0,0,.93,1.52,8,8,0,0,0,1.06,1.15Z" transform="translate(0 -381.2)" style="fill:#f2f2f2"/><path d="M780.9,425.58a4.75,4.75,0,0,1,1,1.68,7.1,7.1,0,0,1,.33,2.25,6.9,6.9,0,0,1-.34,2.25,4.71,4.71,0,0,1-.94,1.66,4.18,4.18,0,0,1-1.49,1,5.71,5.71,0,0,1-3.91,0,4.15,4.15,0,0,1-1.5-1,4.69,4.69,0,0,1-.94-1.67,7,7,0,0,1-.33-2.24,7.39,7.39,0,0,1,.32-2.24,4.84,4.84,0,0,1,1-1.69,3.78,3.78,0,0,1,1.5-1,5.49,5.49,0,0,1,3.91,0A4.17,4.17,0,0,1,780.9,425.58Zm-.13,3.93a4.62,4.62,0,0,0-.89-3.06,3.27,3.27,0,0,0-4.86,0,4.67,4.67,0,0,0-.89,3.06,4.62,4.62,0,0,0,.91,3.06,3.28,3.28,0,0,0,4.83,0A4.62,4.62,0,0,0,780.77,429.51Z" transform="translate(0 -381.2)" style="fill:#f2f2f2"/><path d="M792.75,434.59H791l-3.4-4h-1.91v4h-1.35V424.41h2.85a8.29,8.29,0,0,1,1.54.12,3,3,0,0,1,1.1.43,2.61,2.61,0,0,1,.87.88,2.58,2.58,0,0,1,.31,1.34,3,3,0,0,1-.55,1.84,3.33,3.33,0,0,1-1.53,1.12Zm-3.17-7.31a1.94,1.94,0,0,0-.15-.78,1.32,1.32,0,0,0-.51-.57,2.1,2.1,0,0,0-.7-.28,5.19,5.19,0,0,0-1-.07h-1.59v3.84h1.37a4.63,4.63,0,0,0,1.12-.12,1.66,1.66,0,0,0,.81-.42,1.76,1.76,0,0,0,.46-.66A2.52,2.52,0,0,0,789.58,427.28Z" transform="translate(0 -381.2)" style="fill:#f2f2f2"/><path d="M802.66,429.51a5.27,5.27,0,0,1-.6,2.52,4.62,4.62,0,0,1-1.61,1.75,5.09,5.09,0,0,1-1.56.62,10.56,10.56,0,0,1-2.26.19h-2.57V424.41h2.54a9.91,9.91,0,0,1,2.37.22,5.09,5.09,0,0,1,1.49.59,4.57,4.57,0,0,1,1.62,1.73A5.29,5.29,0,0,1,802.66,429.51Zm-1.41,0a4.33,4.33,0,0,0-.42-2,3.07,3.07,0,0,0-1.25-1.3,4.42,4.42,0,0,0-1.27-.47,8.42,8.42,0,0,0-1.62-.13h-1.27v7.85h1.27a9.33,9.33,0,0,0,1.7-.14,3.94,3.94,0,0,0,1.34-.54,3.13,3.13,0,0,0,1.14-1.28A4.57,4.57,0,0,0,801.25,429.49Z" transform="translate(0 -381.2)" style="fill:#f2f2f2"/><path d="M811.55,434.59h-6.7V424.41h6.7v1.21H806.2v2.79h5.35v1.2H806.2v3.78h5.35Z" transform="translate(0 -381.2)" style="fill:#f2f2f2"/><path d="M821.47,434.59h-1.68l-4.82-9.1v9.1H813.7V424.41h2.1l4.4,8.32v-8.32h1.27Z" transform="translate(0 -381.2)" style="fill:#f2f2f2"/><path d="M756.86,454.59h-1.35v-8.77l-2.83,6h-.81l-2.81-6v8.77H747.8V444.41h1.84l2.72,5.67,2.62-5.67h1.88Z" transform="translate(0 -381.2)" style="fill:#f2f2f2"/><path d="M763.18,454.59h-4v-1h1.34v-8.1h-1.34v-1h4v1h-1.33v8.1h1.33Z" transform="translate(0 -381.2)" style="fill:#f2f2f2"/><path d="M773.25,454.59h-1.67l-4.83-9.1v9.1h-1.26V444.41h2.1l4.4,8.32v-8.32h1.26Z" transform="translate(0 -381.2)" style="fill:#f2f2f2"/><path d="M779.55,454.59h-4v-1h1.33v-8.1h-1.33v-1h4v1h-1.33v8.1h1.33Z" transform="translate(0 -381.2)" style="fill:#f2f2f2"/><path d="M789.25,451.69a2.64,2.64,0,0,1-.28,1.17,2.77,2.77,0,0,1-.77,1,4.12,4.12,0,0,1-1.28.68,5.58,5.58,0,0,1-1.75.25,8.47,8.47,0,0,1-2-.21,10.24,10.24,0,0,1-1.79-.61v-1.69h.1a5.52,5.52,0,0,0,1.78,1,6,6,0,0,0,1.9.35,3.53,3.53,0,0,0,2-.47,1.46,1.46,0,0,0,.7-1.26,1.34,1.34,0,0,0-.33-1,2.32,2.32,0,0,0-1-.5,8.39,8.39,0,0,0-1.11-.22c-.4-.06-.82-.14-1.27-.23a3.73,3.73,0,0,1-2-1,2.68,2.68,0,0,1,.42-3.91,4.45,4.45,0,0,1,2.74-.81,9.18,9.18,0,0,1,2,.2,9.3,9.3,0,0,1,1.59.51v1.6h-.1a4.59,4.59,0,0,0-1.53-.82,6.06,6.06,0,0,0-1.93-.32,3,3,0,0,0-1.75.45,1.36,1.36,0,0,0-.66,1.16,1.44,1.44,0,0,0,.33,1,2.24,2.24,0,0,0,1.15.55c.3.07.71.14,1.25.23s1,.19,1.37.29a3.56,3.56,0,0,1,1.7.9A2.38,2.38,0,0,1,789.25,451.69Z" transform="translate(0 -381.2)" style="fill:#f2f2f2"/><path d="M798.68,445.62h-3.63v9h-1.36v-9h-3.63v-1.21h8.62Z" transform="translate(0 -381.2)" style="fill:#f2f2f2"/><path d="M806.76,454.59h-6.71V444.41h6.71v1.21H801.4v2.79h5.36v1.2H801.4v3.78h5.36Z" transform="translate(0 -381.2)" style="fill:#f2f2f2"/><path d="M817.32,454.59h-1.75l-3.41-4h-1.9v4H808.9V444.41h2.85a8.22,8.22,0,0,1,1.54.12,3.17,3.17,0,0,1,1.11.43,2.49,2.49,0,0,1,.86.88,2.58,2.58,0,0,1,.31,1.34A3,3,0,0,1,815,449a3.35,3.35,0,0,1-1.52,1.12Zm-3.16-7.31a1.94,1.94,0,0,0-.15-.78,1.46,1.46,0,0,0-.51-.57,2.1,2.1,0,0,0-.7-.28,5.34,5.34,0,0,0-.95-.07h-1.59v3.84h1.36a4.57,4.57,0,0,0,1.12-.12,1.74,1.74,0,0,0,.82-.42,1.85,1.85,0,0,0,.45-.66A2.5,2.5,0,0,0,814.16,447.28Z" transform="translate(0 -381.2)" style="fill:#f2f2f2"/><path d="M822.23,454.59h-4v-1h1.33v-8.1h-1.33v-1h4v1h-1.34v8.1h1.34Z" transform="translate(0 -381.2)" style="fill:#f2f2f2"/><path d="M832.55,454.59h-1.44l-1-2.84h-4.4l-1,2.84h-1.37l3.7-10.18h1.81Zm-2.85-4-1.79-5-1.79,5Z" transform="translate(0 -381.2)" style="fill:#f2f2f2"/><path d="M840.54,454.59H834.1V444.41h1.35v9h5.09Z" transform="translate(0 -381.2)" style="fill:#f2f2f2"/><path d="M845.65,450.68a9.84,9.84,0,0,1-.67,3.7,11.17,11.17,0,0,1-1.88,3h-1.57v-.07a9.31,9.31,0,0,0,1.06-1.15,8.81,8.81,0,0,0,.93-1.52,9.71,9.71,0,0,0,.67-1.85,8.43,8.43,0,0,0,.25-2.14,8.63,8.63,0,0,0-.25-2.13,9,9,0,0,0-.67-1.85,10,10,0,0,0-.93-1.53,9.83,9.83,0,0,0-1.06-1.15V444h1.57a11,11,0,0,1,1.88,3A9.87,9.87,0,0,1,845.65,450.68Z" transform="translate(0 -381.2)" style="fill:#f2f2f2"/></svg>