<svg id="Capa_1" data-name="Capa 1" xmlns="http://www.w3.org/2000/svg" viewBox="0 0 906 89"><title>mapa1</title><rect width="906" height="89" style="fill:#fff"/><rect x="262" y="26" width="359" height="63" style="fill:#84a0b4"/><path d="M295.11,52.76l-.58.26a6.93,6.93,0,0,1-.69.26,7.23,7.23,0,0,1-.77.19,5.28,5.28,0,0,1-.93.08,5.22,5.22,0,0,1-1.72-.27,3.37,3.37,0,0,1-1.35-.83,3.69,3.69,0,0,1-.88-1.42,5.73,5.73,0,0,1-.32-2,5.54,5.54,0,0,1,.31-1.93,3.6,3.6,0,0,1,2.22-2.3,4.91,4.91,0,0,1,1.75-.3,6,6,0,0,1,1.4.17,7,7,0,0,1,1.56.6v1.37H295a5.43,5.43,0,0,0-1.43-.88,4.23,4.23,0,0,0-1.52-.27,3.19,3.19,0,0,0-1.19.21,2.79,2.79,0,0,0-.95.67,3.13,3.13,0,0,0-.63,1.11,4.87,4.87,0,0,0-.22,1.55,4.4,4.4,0,0,0,.25,1.58A3.16,3.16,0,0,0,290,51.7a2.5,2.5,0,0,0,1,.64,3.17,3.17,0,0,0,1.15.21,4.26,4.26,0,0,0,1.57-.29A4.6,4.6,0,0,0,295,51.4h.08Z" transform="translate(0)" style="fill:#f2f2f2"/><path d="M303.25,45.67a3.94,3.94,0,0,1,.82,1.43,6.08,6.08,0,0,1,.28,1.93,5.8,5.8,0,0,1-.29,1.93,3.86,3.86,0,0,1-.81,1.42,3.3,3.3,0,0,1-1.27.89,4.42,4.42,0,0,1-1.68.3,4.47,4.47,0,0,1-1.67-.3,3.4,3.4,0,0,1-1.28-.89,3.67,3.67,0,0,1-.81-1.42,6,6,0,0,1-.29-1.93,6,6,0,0,1,.28-1.91,4,4,0,0,1,.82-1.45,3.41,3.41,0,0,1,1.28-.88,4.55,4.55,0,0,1,1.67-.3,4.45,4.45,0,0,1,1.68.3A3.58,3.58,0,0,1,303.25,45.67Zm-.1,3.36a4,4,0,0,0-.77-2.62,2.81,2.81,0,0,0-4.16,0,4,4,0,0,0-.76,2.62,3.93,3.93,0,0,0,.77,2.63,2.82,2.82,0,0,0,4.15,0A4,4,0,0,0,303.15,49Z" transform="translate(0)" style="fill:#f2f2f2"/><path d="M312.85,53.39h-1.44l-4.13-7.8v7.8h-1.09V44.67H308l3.78,7.12V44.67h1.08Z" transform="translate(0)" style="fill:#f2f2f2"/><path d="M321.51,50.9a2.3,2.3,0,0,1-.24,1,2.35,2.35,0,0,1-.66.84,3.69,3.69,0,0,1-1.09.59,4.78,4.78,0,0,1-1.51.21,7.24,7.24,0,0,1-1.69-.18,8,8,0,0,1-1.54-.52V51.4h.09a4.81,4.81,0,0,0,1.52.85,5,5,0,0,0,1.63.3,3,3,0,0,0,1.68-.41,1.24,1.24,0,0,0,.6-1.07,1.14,1.14,0,0,0-.28-.86,2,2,0,0,0-.87-.43,8,8,0,0,0-.95-.19l-1.08-.19a3.2,3.2,0,0,1-1.72-.85,2.29,2.29,0,0,1,.36-3.34,3.77,3.77,0,0,1,2.35-.7,8.06,8.06,0,0,1,1.69.17,8.36,8.36,0,0,1,1.36.44v1.37h-.08a4,4,0,0,0-1.31-.7,5,5,0,0,0-1.66-.28,2.59,2.59,0,0,0-1.5.39,1.16,1.16,0,0,0-.57,1,1.27,1.27,0,0,0,.28.86,1.9,1.9,0,0,0,1,.47c.25.06.61.12,1.07.2s.85.16,1.17.24a3,3,0,0,1,1.47.78A2,2,0,0,1,321.51,50.9Z" transform="translate(0)" style="fill:#f2f2f2"/><path d="M329.6,45.7h-3.12v7.69h-1.16V45.7H322.2v-1h7.4Z" transform="translate(0)" style="fill:#f2f2f2"/><path d="M333.84,53.39H330.4V52.5h1.14V45.56H330.4v-.89h3.44v.89H332.7V52.5h1.14Z" transform="translate(0)" style="fill:#f2f2f2"/><path d="M342,45.7h-3.12v7.69h-1.16V45.7h-3.11v-1H342Z" transform="translate(0)" style="fill:#f2f2f2"/><path d="M349.78,49.89a5.8,5.8,0,0,1-.21,1.65,2.57,2.57,0,0,1-.68,1.18,2.86,2.86,0,0,1-1.05.65,4.66,4.66,0,0,1-1.41.2,4.4,4.4,0,0,1-1.43-.21,2.77,2.77,0,0,1-1-.64,2.88,2.88,0,0,1-.68-1.16,5.76,5.76,0,0,1-.21-1.67V44.67h1.16V50a5.43,5.43,0,0,0,.1,1.12,2.15,2.15,0,0,0,.33.74,1.58,1.58,0,0,0,.7.57,2.6,2.6,0,0,0,1.06.2,2.84,2.84,0,0,0,1.07-.19,1.65,1.65,0,0,0,.7-.58,2.33,2.33,0,0,0,.33-.77,5.23,5.23,0,0,0,.09-1.06V44.67h1.16Z" transform="translate(0)" style="fill:#f2f2f2"/><path d="M358.73,52.76l-.58.26a5.83,5.83,0,0,1-.68.26,7.43,7.43,0,0,1-.78.19,5.17,5.17,0,0,1-.92.08,5.28,5.28,0,0,1-1.73-.27,3.51,3.51,0,0,1-1.35-.83,3.94,3.94,0,0,1-.88-1.42,6.45,6.45,0,0,1,0-3.92,4.1,4.1,0,0,1,.88-1.44,3.77,3.77,0,0,1,1.35-.86,4.83,4.83,0,0,1,1.75-.3,6.16,6.16,0,0,1,1.4.17,7,7,0,0,1,1.55.6v1.37h-.08a5.43,5.43,0,0,0-1.43-.88,4.27,4.27,0,0,0-1.52-.27,3.19,3.19,0,0,0-1.19.21,2.7,2.7,0,0,0-.95.67,3,3,0,0,0-.63,1.11,4.87,4.87,0,0,0-.22,1.55,4.4,4.4,0,0,0,.25,1.58,3,3,0,0,0,.64,1.08,2.54,2.54,0,0,0,.95.64,3.22,3.22,0,0,0,1.16.21,4.29,4.29,0,0,0,1.57-.29,4.44,4.44,0,0,0,1.37-.86h.08Z" transform="translate(0)" style="fill:#f2f2f2"/><path d="M363.45,53.39H360V52.5h1.14V45.56H360v-.89h3.44v.89h-1.14V52.5h1.14Z" transform="translate(0)" style="fill:#f2f2f2"/><path d="M371.93,45.67a3.94,3.94,0,0,1,.82,1.43A6.08,6.08,0,0,1,373,49a5.8,5.8,0,0,1-.29,1.93,3.86,3.86,0,0,1-.81,1.42,3.3,3.3,0,0,1-1.27.89,4.42,4.42,0,0,1-1.68.3,4.53,4.53,0,0,1-1.68-.3,3.48,3.48,0,0,1-1.28-.89,3.94,3.94,0,0,1-.81-1.42,6,6,0,0,1-.28-1.93,6,6,0,0,1,.28-1.91,4,4,0,0,1,.82-1.45,3.33,3.33,0,0,1,1.28-.88,4.55,4.55,0,0,1,1.67-.3,4.49,4.49,0,0,1,1.68.3A3.58,3.58,0,0,1,371.93,45.67ZM371.82,49a4,4,0,0,0-.76-2.62,2.82,2.82,0,0,0-4.17,0,4.07,4.07,0,0,0-.76,2.62,3.93,3.93,0,0,0,.78,2.63,2.81,2.81,0,0,0,4.14,0A3.93,3.93,0,0,0,371.82,49Zm-1.22-7.64L369,43.58h-.87l1.05-2.19Z" transform="translate(0)" style="fill:#f2f2f2"/><path d="M381.53,53.39h-1.44L376,45.59v7.8h-1.09V44.67h1.8l3.77,7.12V44.67h1.09Z" transform="translate(0)" style="fill:#f2f2f2"/><path d="M393.63,50h-5.84V49.1h5.84Z" transform="translate(0)" style="fill:#f2f2f2"/><path d="M406.14,45.7H403v7.69h-1.16V45.7h-3.12v-1h7.4Z" transform="translate(0)" style="fill:#f2f2f2"/><path d="M414.53,53.39H413l-2.92-3.47h-1.63v3.47h-1.16V44.67h2.44a7,7,0,0,1,1.32.1,2.73,2.73,0,0,1,.95.37,2.12,2.12,0,0,1,.74.75A2.22,2.22,0,0,1,413,47a2.54,2.54,0,0,1-.48,1.58,2.92,2.92,0,0,1-1.3,1Zm-2.72-6.27a1.53,1.53,0,0,0-.13-.66,1.06,1.06,0,0,0-.43-.49,1.61,1.61,0,0,0-.6-.24,4.73,4.73,0,0,0-.82-.07h-1.36V49h1.17a4.42,4.42,0,0,0,1-.1,1.61,1.61,0,0,0,.7-.36,1.57,1.57,0,0,0,.39-.57A2.31,2.31,0,0,0,411.81,47.12Z" transform="translate(0)" style="fill:#f2f2f2"/><path d="M422.53,53.39h-1.24L420.44,51h-3.77l-.86,2.43h-1.18l3.18-8.72h1.55ZM420.08,50l-1.53-4.28L417,50Z" transform="translate(0)" style="fill:#f2f2f2"/><path d="M429.38,45.7h-3.12v7.69H425.1V45.7H422v-1h7.4Z" transform="translate(0)" style="fill:#f2f2f2"/><path d="M436.72,53.39h-1.23L434.63,51h-3.77L430,53.39h-1.18L432,44.67h1.55ZM434.27,50l-1.53-4.28L431.21,50Z" transform="translate(0)" style="fill:#f2f2f2"/><path d="M445.42,49a4.41,4.41,0,0,1-.52,2.15,3.86,3.86,0,0,1-1.38,1.5,4.23,4.23,0,0,1-1.33.54,9.25,9.25,0,0,1-1.94.16h-2.2V44.67h2.18a9.09,9.09,0,0,1,2,.18,4.21,4.21,0,0,1,1.27.51,3.8,3.8,0,0,1,1.39,1.48A4.61,4.61,0,0,1,445.42,49Zm-1.21,0a3.78,3.78,0,0,0-.36-1.73,2.66,2.66,0,0,0-1.07-1.11,3.58,3.58,0,0,0-1.09-.4,7,7,0,0,0-1.39-.12h-1.09V52.4h1.09a7.76,7.76,0,0,0,1.46-.13,3.17,3.17,0,0,0,1.14-.45,2.66,2.66,0,0,0,1-1.1A3.87,3.87,0,0,0,444.21,49Z" transform="translate(0)" style="fill:#f2f2f2"/><path d="M453.8,45.67a4.09,4.09,0,0,1,.82,1.43A6.37,6.37,0,0,1,454.9,49a6.07,6.07,0,0,1-.29,1.93,4,4,0,0,1-.81,1.42,3.33,3.33,0,0,1-1.28.89,4.42,4.42,0,0,1-1.68.3,4.47,4.47,0,0,1-1.67-.3,3.4,3.4,0,0,1-1.28-.89,3.94,3.94,0,0,1-.81-1.42,6,6,0,0,1-.29-1.93,5.94,5.94,0,0,1,.29-1.91,3.89,3.89,0,0,1,.82-1.45,3.33,3.33,0,0,1,1.28-.88,4.83,4.83,0,0,1,3.35,0A3.58,3.58,0,0,1,453.8,45.67ZM453.69,49a4,4,0,0,0-.76-2.62,2.82,2.82,0,0,0-4.17,0A4.07,4.07,0,0,0,448,49a3.93,3.93,0,0,0,.78,2.63,2.81,2.81,0,0,0,4.14,0A3.93,3.93,0,0,0,453.69,49Z" transform="translate(0)" style="fill:#f2f2f2"/><path d="M463.08,50.9a2.3,2.3,0,0,1-.24,1,2.47,2.47,0,0,1-.66.84,3.63,3.63,0,0,1-1.1.59,4.68,4.68,0,0,1-1.5.21,7.39,7.39,0,0,1-1.7-.18,8.14,8.14,0,0,1-1.53-.52V51.4h.08a4.86,4.86,0,0,0,1.53.85,5,5,0,0,0,1.63.3,3,3,0,0,0,1.68-.41,1.24,1.24,0,0,0,.6-1.07,1.14,1.14,0,0,0-.28-.86,2,2,0,0,0-.87-.43,8,8,0,0,0-1-.19l-1.09-.19a3.28,3.28,0,0,1-1.72-.85,2.29,2.29,0,0,1,.37-3.34,3.77,3.77,0,0,1,2.35-.7,8.06,8.06,0,0,1,1.69.17,8.36,8.36,0,0,1,1.36.44v1.37h-.09a3.89,3.89,0,0,0-1.3-.7,5,5,0,0,0-1.67-.28,2.55,2.55,0,0,0-1.49.39,1.16,1.16,0,0,0-.57,1,1.27,1.27,0,0,0,.28.86,1.9,1.9,0,0,0,1,.47c.25.06.61.12,1.07.2s.85.16,1.17.24a3,3,0,0,1,1.47.78A2.09,2.09,0,0,1,463.08,50.9Z" transform="translate(0)" style="fill:#f2f2f2"/><path d="M472.24,53.39h-3.45V52.5h1.14V45.56h-1.14v-.89h3.45v.89h-1.15V52.5h1.15Z" transform="translate(0)" style="fill:#f2f2f2"/><path d="M480.87,53.39h-1.44l-4.14-7.8v7.8h-1.08V44.67H476l3.77,7.12V44.67h1.09Z" transform="translate(0)" style="fill:#f2f2f2"/><path d="M489.41,45.7h-3.12v7.69h-1.16V45.7H482v-1h7.39Z" transform="translate(0)" style="fill:#f2f2f2"/><path d="M496.33,53.39h-5.75V44.67h5.75v1h-4.59v2.39h4.59v1h-4.59v3.24h4.59Z" transform="translate(0)" style="fill:#f2f2f2"/><path d="M505.39,53.39h-1.51L501,49.92h-1.63v3.47h-1.16V44.67h2.44a7,7,0,0,1,1.32.1,2.73,2.73,0,0,1,.95.37,2,2,0,0,1,.74.75,2.22,2.22,0,0,1,.27,1.15,2.54,2.54,0,0,1-.48,1.58,2.92,2.92,0,0,1-1.3,1Zm-2.71-6.27a1.53,1.53,0,0,0-.14-.66,1.06,1.06,0,0,0-.43-.49,1.61,1.61,0,0,0-.6-.24,4.7,4.7,0,0,0-.81-.07h-1.37V49h1.17a4.42,4.42,0,0,0,1-.1,1.61,1.61,0,0,0,.7-.36,1.46,1.46,0,0,0,.39-.57A2.29,2.29,0,0,0,502.68,47.12Z" transform="translate(0)" style="fill:#f2f2f2"/><path d="M513.17,53.39h-1.44l-4.13-7.8v7.8h-1.09V44.67h1.8l3.78,7.12V44.67h1.08Z" transform="translate(0)" style="fill:#f2f2f2"/><path d="M522.37,53.39h-1.24L520.28,51H516.5l-.85,2.43h-1.18l3.18-8.72h1.54ZM519.92,50l-1.53-4.28L516.86,50Z" transform="translate(0)" style="fill:#f2f2f2"/><path d="M530.43,52.76l-.58.26a5.83,5.83,0,0,1-.68.26,7.43,7.43,0,0,1-.78.19,5.55,5.55,0,0,1-2.65-.19,3.37,3.37,0,0,1-1.35-.83,3.81,3.81,0,0,1-.88-1.42,6.45,6.45,0,0,1,0-3.92,4,4,0,0,1,.88-1.44,3.81,3.81,0,0,1,1.34-.86,4.91,4.91,0,0,1,1.75-.3,6.18,6.18,0,0,1,1.41.17,7.17,7.17,0,0,1,1.55.6v1.37h-.09a5.28,5.28,0,0,0-1.43-.88,4.17,4.17,0,0,0-1.51-.27,3.19,3.19,0,0,0-1.19.21,2.7,2.7,0,0,0-1,.67,3,3,0,0,0-.63,1.11A4.86,4.86,0,0,0,524.4,49a4.63,4.63,0,0,0,.25,1.58,3.32,3.32,0,0,0,.64,1.08,2.65,2.65,0,0,0,1,.64,3.22,3.22,0,0,0,1.16.21,4.29,4.29,0,0,0,1.57-.29,4.56,4.56,0,0,0,1.37-.86h.08Z" transform="translate(0)" style="fill:#f2f2f2"/><path d="M535.15,53.39H531.7V52.5h1.15V45.56H531.7v-.89h3.45v.89H534V52.5h1.14Z" transform="translate(0)" style="fill:#f2f2f2"/><path d="M543.63,45.67a4.09,4.09,0,0,1,.82,1.43,6.37,6.37,0,0,1,.28,1.93,6.07,6.07,0,0,1-.29,1.93,4,4,0,0,1-.81,1.42,3.33,3.33,0,0,1-1.28.89,4.42,4.42,0,0,1-1.68.3,4.47,4.47,0,0,1-1.67-.3,3.4,3.4,0,0,1-1.28-.89,3.94,3.94,0,0,1-.81-1.42,6,6,0,0,1-.28-1.93,6,6,0,0,1,.28-1.91,3.89,3.89,0,0,1,.82-1.45,3.33,3.33,0,0,1,1.28-.88,4.83,4.83,0,0,1,3.35,0A3.58,3.58,0,0,1,543.63,45.67ZM543.52,49a4,4,0,0,0-.76-2.62,2.82,2.82,0,0,0-4.17,0,4.07,4.07,0,0,0-.76,2.62,3.93,3.93,0,0,0,.78,2.63,2.81,2.81,0,0,0,4.14,0A3.93,3.93,0,0,0,543.52,49Z" transform="translate(0)" style="fill:#f2f2f2"/><path d="M553.22,53.39h-1.43l-4.14-7.8v7.8h-1.08V44.67h1.8l3.77,7.12V44.67h1.08Z" transform="translate(0)" style="fill:#f2f2f2"/><path d="M562.42,53.39h-1.23L560.33,51h-3.77l-.86,2.43h-1.17l3.17-8.72h1.55ZM560,50l-1.52-4.28L556.91,50Z" transform="translate(0)" style="fill:#f2f2f2"/><path d="M569.27,53.39h-5.52V44.67h1.16v7.69h4.36Z" transform="translate(0)" style="fill:#f2f2f2"/><path d="M576.18,53.39h-5.75V44.67h5.75v1h-4.59v2.39h4.59v1h-4.59v3.24h4.59Z" transform="translate(0)" style="fill:#f2f2f2"/><path d="M584.36,50.9a2.3,2.3,0,0,1-.24,1,2.38,2.38,0,0,1-.67.84,3.46,3.46,0,0,1-1.09.59,4.72,4.72,0,0,1-1.5.21,7.33,7.33,0,0,1-1.7-.18,8.14,8.14,0,0,1-1.53-.52V51.4h.08a4.75,4.75,0,0,0,1.53.85,5,5,0,0,0,1.63.3,3,3,0,0,0,1.68-.41,1.24,1.24,0,0,0,.6-1.07,1.18,1.18,0,0,0-.28-.86,2,2,0,0,0-.87-.43,8,8,0,0,0-1-.19L580,49.4a3.28,3.28,0,0,1-1.72-.85,2.29,2.29,0,0,1,.37-3.34,3.75,3.75,0,0,1,2.35-.7,8,8,0,0,1,1.68.17,7.77,7.77,0,0,1,1.36.44v1.37h-.08a4,4,0,0,0-1.31-.7,5,5,0,0,0-1.66-.28,2.55,2.55,0,0,0-1.49.39,1.16,1.16,0,0,0-.57,1,1.22,1.22,0,0,0,.28.86,1.9,1.9,0,0,0,1,.47c.25.06.61.12,1.07.2s.85.16,1.17.24a2.94,2.94,0,0,1,1.46.78A2.05,2.05,0,0,1,584.36,50.9Z" transform="translate(0)" style="fill:#f2f2f2"/><path d="M596,50h-5.84V49.1H596Z" transform="translate(0)" style="fill:#f2f2f2"/><path d="M349.39,63.44a4.41,4.41,0,0,1-.52,2.15,3.79,3.79,0,0,1-1.38,1.5,4.23,4.23,0,0,1-1.33.54,9.25,9.25,0,0,1-1.94.16H342V59.07h2.18a9.09,9.09,0,0,1,2,.18,4.21,4.21,0,0,1,1.27.51,3.8,3.8,0,0,1,1.39,1.48A4.61,4.61,0,0,1,349.39,63.44Zm-1.21,0a3.78,3.78,0,0,0-.36-1.73,2.66,2.66,0,0,0-1.07-1.11,3.58,3.58,0,0,0-1.09-.4,7,7,0,0,0-1.39-.12h-1.09V66.8h1.09a7.76,7.76,0,0,0,1.46-.13,3.29,3.29,0,0,0,1.15-.45,2.71,2.71,0,0,0,1-1.1A3.87,3.87,0,0,0,348.18,63.42Z" transform="translate(0)" style="fill:#f2f2f2"/><path d="M357,67.79h-5.75V59.07H357v1h-4.59v2.39H357v1h-4.59v3.24H357Z" transform="translate(0)" style="fill:#f2f2f2"/><path d="M366.07,67.79h-1.51l-2.91-3.47H360v3.47h-1.16V59.07h2.44a7,7,0,0,1,1.32.1,2.73,2.73,0,0,1,.95.37,2,2,0,0,1,.74.75,2.22,2.22,0,0,1,.27,1.15A2.6,2.6,0,0,1,364.1,63a3,3,0,0,1-1.31,1Zm-2.71-6.27a1.69,1.69,0,0,0-.13-.66,1.15,1.15,0,0,0-.44-.49,1.61,1.61,0,0,0-.6-.24,4.7,4.7,0,0,0-.81-.07H360v3.3h1.17a4.42,4.42,0,0,0,1-.1,1.61,1.61,0,0,0,.7-.36,1.46,1.46,0,0,0,.39-.57A2.08,2.08,0,0,0,363.36,61.52Z" transform="translate(0)" style="fill:#f2f2f2"/><path d="M372.94,67.79H367.2V59.07h5.74v1h-4.58v2.39h4.58v1h-4.58v3.24h4.58Z" transform="translate(0)" style="fill:#f2f2f2"/><path d="M381.52,67.16l-.58.26a5.83,5.83,0,0,1-.68.26,7.43,7.43,0,0,1-.78.19,5.55,5.55,0,0,1-2.65-.19,3.37,3.37,0,0,1-1.35-.83,3.81,3.81,0,0,1-.88-1.42,6.45,6.45,0,0,1,0-3.92,4,4,0,0,1,.88-1.44,3.81,3.81,0,0,1,1.34-.86,4.91,4.91,0,0,1,1.75-.3,6.18,6.18,0,0,1,1.41.17,7.17,7.17,0,0,1,1.55.6v1.37h-.09a5.28,5.28,0,0,0-1.43-.88,4.17,4.17,0,0,0-1.51-.27,3.25,3.25,0,0,0-1.2.21,2.76,2.76,0,0,0-.94.67,3,3,0,0,0-.63,1.11,4.86,4.86,0,0,0-.23,1.55,4.63,4.63,0,0,0,.25,1.58,3.32,3.32,0,0,0,.64,1.08,2.65,2.65,0,0,0,1,.64,3.22,3.22,0,0,0,1.16.21,4.29,4.29,0,0,0,1.57-.29,4.56,4.56,0,0,0,1.37-.86h.08Z" transform="translate(0)" style="fill:#f2f2f2"/><path d="M389.84,67.79h-1.16V63.52h-4.36v4.27h-1.16V59.07h1.16v3.42h4.36V59.07h1.16Z" transform="translate(0)" style="fill:#f2f2f2"/><path d="M398.68,60.07a3.94,3.94,0,0,1,.82,1.43,6.57,6.57,0,0,1,0,3.86,4,4,0,0,1-.82,1.42,3.3,3.3,0,0,1-1.27.89,4.42,4.42,0,0,1-1.68.3,4.47,4.47,0,0,1-1.67-.3,3.4,3.4,0,0,1-1.28-.89,3.94,3.94,0,0,1-.81-1.42,6,6,0,0,1-.29-1.93,6.24,6.24,0,0,1,.28-1.91,4,4,0,0,1,.82-1.45,3.41,3.41,0,0,1,1.28-.88,4.85,4.85,0,0,1,3.36,0A3.54,3.54,0,0,1,398.68,60.07Zm-.1,3.36a4.07,4.07,0,0,0-.76-2.62,2.82,2.82,0,0,0-4.17,0,4.89,4.89,0,0,0,0,5.25,2.82,2.82,0,0,0,4.15,0A4,4,0,0,0,398.58,63.43Z" transform="translate(0)" style="fill:#f2f2f2"/><path d="M413.21,63.44a4.52,4.52,0,0,1-.51,2.15,3.86,3.86,0,0,1-1.38,1.5,4.29,4.29,0,0,1-1.34.54,9.15,9.15,0,0,1-1.93.16h-2.21V59.07H408a9,9,0,0,1,2,.18,4.17,4.17,0,0,1,1.28.51,4,4,0,0,1,1.39,1.48A4.61,4.61,0,0,1,413.21,63.44Zm-1.21,0a3.78,3.78,0,0,0-.36-1.73,2.58,2.58,0,0,0-1.06-1.11,3.64,3.64,0,0,0-1.1-.4,6.91,6.91,0,0,0-1.39-.12H407V66.8h1.09a7.87,7.87,0,0,0,1.47-.13,3.32,3.32,0,0,0,1.14-.45,2.73,2.73,0,0,0,1-1.1A4,4,0,0,0,412,63.42Z" transform="translate(0)" style="fill:#f2f2f2"/><path d="M420.84,67.79h-5.75V59.07h5.75v1h-4.59v2.39h4.59v1h-4.59v3.24h4.59Z" transform="translate(0)" style="fill:#f2f2f2"/><path d="M432.42,67.79H426.9V59.07h1.16v7.69h4.36Z" transform="translate(0)" style="fill:#f2f2f2"/><path d="M440.46,67.79h-1.24l-.86-2.43h-3.77l-.86,2.43h-1.17l3.17-8.72h1.55ZM438,64.36l-1.53-4.28-1.54,4.28Z" transform="translate(0)" style="fill:#f2f2f2"/><path d="M452.57,64.29a5.8,5.8,0,0,1-.21,1.65,2.76,2.76,0,0,1-.68,1.18,2.89,2.89,0,0,1-1.06.65,4.57,4.57,0,0,1-1.41.2,4.33,4.33,0,0,1-1.42-.21,2.66,2.66,0,0,1-1.71-1.8,5.76,5.76,0,0,1-.21-1.67V59.07H447v5.28a4.81,4.81,0,0,0,.1,1.12,2.13,2.13,0,0,0,.32.74,1.64,1.64,0,0,0,.7.57,2.64,2.64,0,0,0,1.06.2,2.81,2.81,0,0,0,1.07-.19,1.59,1.59,0,0,0,.7-.58,2,2,0,0,0,.33-.77,4.54,4.54,0,0,0,.1-1.06V59.07h1.16Z" transform="translate(0)" style="fill:#f2f2f2"/><path d="M461.44,67.79H460L455.87,60v7.8h-1.09V59.07h1.8l3.77,7.12V59.07h1.09Z" transform="translate(0)" style="fill:#f2f2f2"/><path d="M466.83,67.79h-3.44V66.9h1.14V60h-1.14v-.89h3.44V60h-1.14V66.9h1.14Z" transform="translate(0)" style="fill:#f2f2f2"/><path d="M475.31,60.07a3.94,3.94,0,0,1,.82,1.43,6.79,6.79,0,0,1,0,3.86,4,4,0,0,1-.82,1.42,3.3,3.3,0,0,1-1.27.89,4.42,4.42,0,0,1-1.68.3,4.47,4.47,0,0,1-1.67-.3,3.4,3.4,0,0,1-1.28-.89,3.8,3.8,0,0,1-.81-1.42,6,6,0,0,1-.29-1.93,6,6,0,0,1,.28-1.91,4,4,0,0,1,.82-1.45,3.41,3.41,0,0,1,1.28-.88,4.55,4.55,0,0,1,1.67-.3,4.45,4.45,0,0,1,1.68.3A3.58,3.58,0,0,1,475.31,60.07Zm-.1,3.36a4.07,4.07,0,0,0-.76-2.62,2.82,2.82,0,0,0-4.17,0,4.89,4.89,0,0,0,0,5.25,2.82,2.82,0,0,0,4.15,0A4,4,0,0,0,475.21,63.43ZM474,55.79,472.38,58h-.87l1.05-2.19Z" transform="translate(0)" style="fill:#f2f2f2"/><path d="M484.91,67.79h-1.44L479.34,60v7.8h-1.09V59.07h1.8l3.78,7.12V59.07h1.08Z" transform="translate(0)" style="fill:#f2f2f2"/><path d="M497.2,67.79h-5.75V59.07h5.75v1h-4.59v2.39h4.59v1h-4.59v3.24h4.59Z" transform="translate(0)" style="fill:#f2f2f2"/><path d="M505.61,64.29a5.8,5.8,0,0,1-.21,1.65,2.68,2.68,0,0,1-.69,1.18,2.86,2.86,0,0,1-1,.65,4.57,4.57,0,0,1-1.41.2,4.44,4.44,0,0,1-1.43-.21,2.81,2.81,0,0,1-1-.64,2.77,2.77,0,0,1-.68-1.16,5.76,5.76,0,0,1-.21-1.67V59.07h1.16v5.28a4.81,4.81,0,0,0,.1,1.12,2.13,2.13,0,0,0,.32.74,1.64,1.64,0,0,0,.7.57,2.64,2.64,0,0,0,1.06.2,2.81,2.81,0,0,0,1.07-.19,1.59,1.59,0,0,0,.7-.58,2,2,0,0,0,.33-.77,5.15,5.15,0,0,0,.1-1.06V59.07h1.16Z" transform="translate(0)" style="fill:#f2f2f2"/><path d="M515,67.79h-1.51l-2.91-3.47H509v3.47h-1.16V59.07h2.44a7,7,0,0,1,1.32.1,2.73,2.73,0,0,1,.95.37,2,2,0,0,1,.74.75,2.22,2.22,0,0,1,.27,1.15,2.54,2.54,0,0,1-.48,1.58,2.92,2.92,0,0,1-1.3,1Zm-2.71-6.27a1.69,1.69,0,0,0-.13-.66,1.15,1.15,0,0,0-.44-.49,1.61,1.61,0,0,0-.6-.24,4.7,4.7,0,0,0-.81-.07H509v3.3h1.17a4.42,4.42,0,0,0,1-.1,1.61,1.61,0,0,0,.7-.36,1.46,1.46,0,0,0,.39-.57A2.08,2.08,0,0,0,512.33,61.52Z" transform="translate(0)" style="fill:#f2f2f2"/><path d="M522.67,60.07a4.09,4.09,0,0,1,.82,1.43,6.68,6.68,0,0,1,0,3.86,3.86,3.86,0,0,1-.81,1.42,3.33,3.33,0,0,1-1.28.89,4.42,4.42,0,0,1-1.68.3,4.47,4.47,0,0,1-1.67-.3,3.4,3.4,0,0,1-1.28-.89,3.94,3.94,0,0,1-.81-1.42,6,6,0,0,1-.28-1.93,6,6,0,0,1,.28-1.91,3.89,3.89,0,0,1,.82-1.45,3.33,3.33,0,0,1,1.28-.88,4.83,4.83,0,0,1,3.35,0A3.58,3.58,0,0,1,522.67,60.07Zm-.11,3.36a4,4,0,0,0-.76-2.62,2.82,2.82,0,0,0-4.17,0,4.07,4.07,0,0,0-.76,2.62,3.93,3.93,0,0,0,.78,2.63,2.81,2.81,0,0,0,4.14,0A3.93,3.93,0,0,0,522.56,63.43Z" transform="translate(0)" style="fill:#f2f2f2"/><path d="M531.32,61.7a2.92,2.92,0,0,1-.2,1.08,2.69,2.69,0,0,1-.57.86,2.9,2.9,0,0,1-1.07.67,4.57,4.57,0,0,1-1.55.23h-1.16v3.25h-1.16V59.07H528a5.7,5.7,0,0,1,1.33.13,3,3,0,0,1,1,.41,2.26,2.26,0,0,1,.77.83A2.55,2.55,0,0,1,531.32,61.7Zm-1.21,0A1.73,1.73,0,0,0,530,61a1.27,1.27,0,0,0-.48-.55,1.92,1.92,0,0,0-.64-.26,4.51,4.51,0,0,0-.91-.08h-1.15v3.49h1a4,4,0,0,0,1.14-.13,1.59,1.59,0,0,0,.72-.4,1.78,1.78,0,0,0,.39-.59A2.19,2.19,0,0,0,530.11,61.73Z" transform="translate(0)" style="fill:#f2f2f2"/><path d="M538.59,67.79h-5.74V59.07h5.74v1H534v2.39h4.58v1H534v3.24h4.58Z" transform="translate(0)" style="fill:#f2f2f2"/><path d="M547.31,67.79h-1.23l-.86-2.43h-3.77l-.86,2.43h-1.18l3.18-8.72h1.55Zm-2.45-3.43-1.53-4.28-1.53,4.28Z" transform="translate(0)" style="fill:#f2f2f2"/></svg>