<svg id="Capa_1" data-name="Capa 1" xmlns="http://www.w3.org/2000/svg" viewBox="0 0 906 74"><title>mapa5</title><rect width="906" height="74" style="fill:#fff"/><rect x="29.5" width="161" height="74" style="fill:#919191"/><path d="M67.18,301.12H65.51L60.68,292v9.1H59.42V291h2.1l4.4,8.31V291h1.26Z" transform="translate(0 -269)" style="fill:#f2f2f2"/><path d="M77.48,292.12a4.62,4.62,0,0,1,1,1.67,7.84,7.84,0,0,1,0,4.5,4.7,4.7,0,0,1-1,1.66A4.06,4.06,0,0,1,76,301a5.19,5.19,0,0,1-2,.35,5.13,5.13,0,0,1-2-.36,4,4,0,0,1-1.49-1,4.66,4.66,0,0,1-1-1.66,7.1,7.1,0,0,1-.33-2.25,7,7,0,0,1,.33-2.23,4.67,4.67,0,0,1,1-1.69,3.87,3.87,0,0,1,1.49-1,5.49,5.49,0,0,1,3.91,0A4.07,4.07,0,0,1,77.48,292.12ZM77.36,296a4.71,4.71,0,0,0-.89-3.06,3.29,3.29,0,0,0-4.87,0,4.71,4.71,0,0,0-.88,3.06,4.65,4.65,0,0,0,.9,3.07,3.29,3.29,0,0,0,4.84,0A4.65,4.65,0,0,0,77.36,296Z" transform="translate(0 -269)" style="fill:#f2f2f2"/><path d="M89.33,301.12H87.58l-3.41-4H82.26v4H80.91V291h2.85a8.22,8.22,0,0,1,1.54.12,3.37,3.37,0,0,1,1.11.42,2.67,2.67,0,0,1,.86.88,2.58,2.58,0,0,1,.31,1.34,3,3,0,0,1-.55,1.85,3.38,3.38,0,0,1-1.53,1.11Zm-3.16-7.31A1.71,1.71,0,0,0,86,293a1.34,1.34,0,0,0-.51-.58,1.78,1.78,0,0,0-.69-.27,4.49,4.49,0,0,0-1-.08h-1.6V296h1.37a5.24,5.24,0,0,0,1.12-.11,1.94,1.94,0,0,0,.82-.42,1.85,1.85,0,0,0,.45-.66A2.59,2.59,0,0,0,86.17,293.81Z" transform="translate(0 -269)" style="fill:#f2f2f2"/><path d="M99.71,301.12H98.36v-8.77l-2.83,6h-.81l-2.81-6v8.77H90.65V291h1.84l2.71,5.66L97.83,291h1.88Z" transform="translate(0 -269)" style="fill:#f2f2f2"/><path d="M110.47,301.12H109l-1-2.83h-4.4l-1,2.83h-1.38L105,291h1.8Zm-2.86-4-1.78-5-1.79,5Z" transform="translate(0 -269)" style="fill:#f2f2f2"/><path d="M119.34,298.22a2.78,2.78,0,0,1-.27,1.18,3,3,0,0,1-.78,1,4.12,4.12,0,0,1-1.28.68,5.31,5.31,0,0,1-1.75.25,8.59,8.59,0,0,1-2-.21,9.66,9.66,0,0,1-1.79-.6v-1.7h.1a5.63,5.63,0,0,0,1.78,1,6,6,0,0,0,1.9.35,3.5,3.5,0,0,0,2-.47,1.45,1.45,0,0,0,.7-1.26,1.35,1.35,0,0,0-.33-1,2.27,2.27,0,0,0-1-.5,10.38,10.38,0,0,0-1.11-.22c-.4-.06-.82-.14-1.26-.23a3.73,3.73,0,0,1-2-1,2.68,2.68,0,0,1,.43-3.9,4.38,4.38,0,0,1,2.74-.82,9.1,9.1,0,0,1,3.55.71v1.6h-.09a4.6,4.6,0,0,0-1.53-.81,5.86,5.86,0,0,0-1.94-.33,3.07,3.07,0,0,0-1.75.45,1.36,1.36,0,0,0-.66,1.16,1.42,1.42,0,0,0,.33,1,2.28,2.28,0,0,0,1.16.56c.29.06.7.14,1.24.23s1,.18,1.37.28a3.48,3.48,0,0,1,1.71.91A2.38,2.38,0,0,1,119.34,298.22Z" transform="translate(0 -269)" style="fill:#f2f2f2"/><path d="M134.3,300.39l-.68.3a6.45,6.45,0,0,1-.8.31c-.28.08-.58.16-.9.22a6.62,6.62,0,0,1-3.09-.22,4.05,4.05,0,0,1-1.58-1,4.28,4.28,0,0,1-1-1.65,6.57,6.57,0,0,1-.37-2.32,6.81,6.81,0,0,1,.35-2.25,4.62,4.62,0,0,1,1-1.68,4.21,4.21,0,0,1,1.57-1,5.74,5.74,0,0,1,2-.35,7,7,0,0,1,1.63.2,8.81,8.81,0,0,1,1.82.7v1.6h-.1a5.91,5.91,0,0,0-1.67-1,4.72,4.72,0,0,0-1.77-.32,3.59,3.59,0,0,0-1.39.25,3,3,0,0,0-1.11.77,3.56,3.56,0,0,0-.73,1.3,5.53,5.53,0,0,0-.26,1.81,5.08,5.08,0,0,0,.29,1.84,3.65,3.65,0,0,0,.74,1.26,3,3,0,0,0,1.12.75,3.84,3.84,0,0,0,1.35.24,5,5,0,0,0,1.83-.33,5.26,5.26,0,0,0,1.6-1h.1Z" transform="translate(0 -269)" style="fill:#f2f2f2"/><path d="M143.8,292.12a4.48,4.48,0,0,1,.95,1.67,6.82,6.82,0,0,1,.34,2.25,7.09,7.09,0,0,1-.34,2.25,4.55,4.55,0,0,1-.95,1.66,4,4,0,0,1-1.49,1,5.56,5.56,0,0,1-3.91,0,4,4,0,0,1-1.49-1,4.81,4.81,0,0,1-.95-1.66,7.1,7.1,0,0,1-.33-2.25,7,7,0,0,1,.33-2.23,4.67,4.67,0,0,1,1-1.69,4,4,0,0,1,1.49-1,5.17,5.17,0,0,1,2-.36,5.11,5.11,0,0,1,2,.36A4,4,0,0,1,143.8,292.12Zm-.12,3.92a4.71,4.71,0,0,0-.89-3.06,3.27,3.27,0,0,0-4.86,0A4.71,4.71,0,0,0,137,296a4.65,4.65,0,0,0,.9,3.07,3.29,3.29,0,0,0,4.84,0A4.65,4.65,0,0,0,143.68,296Z" transform="translate(0 -269)" style="fill:#f2f2f2"/><path d="M155,301.12h-1.68L148.5,292v9.1h-1.27V291h2.1l4.4,8.31V291H155Z" transform="translate(0 -269)" style="fill:#f2f2f2"/><path d="M68.11,311,64.4,321.12H62.6L58.89,311h1.45l3.19,8.95,3.2-8.95Z" transform="translate(0 -269)" style="fill:#f2f2f2"/><path d="M77.27,321.12H75.82l-1-2.83H70.42l-1,2.83H68.05L71.76,311h1.8Zm-2.86-4-1.78-5-1.8,5Z" transform="translate(0 -269)" style="fill:#f2f2f2"/><path d="M85.25,321.12H78.81V311h1.36v9h5.08Z" transform="translate(0 -269)" style="fill:#f2f2f2"/><path d="M94.06,312.12a4.62,4.62,0,0,1,1,1.67,7.1,7.1,0,0,1,.33,2.25,6.82,6.82,0,0,1-.34,2.25,4.54,4.54,0,0,1-.94,1.66,4.06,4.06,0,0,1-1.49,1,5.23,5.23,0,0,1-2,.35,5.09,5.09,0,0,1-2-.36,3.91,3.91,0,0,1-1.49-1,4.66,4.66,0,0,1-1-1.66,7.1,7.1,0,0,1-.33-2.25,7,7,0,0,1,.33-2.23,4.51,4.51,0,0,1,1-1.69,3.91,3.91,0,0,1,1.5-1,5.49,5.49,0,0,1,3.91,0A4.07,4.07,0,0,1,94.06,312.12ZM93.93,316A4.65,4.65,0,0,0,93,313a3.27,3.27,0,0,0-4.86,0A4.71,4.71,0,0,0,87.3,316a4.65,4.65,0,0,0,.9,3.07,3,3,0,0,0,2.42,1.06A3,3,0,0,0,93,319.11,4.65,4.65,0,0,0,93.93,316Z" transform="translate(0 -269)" style="fill:#f2f2f2"/><path d="M105.91,321.12h-1.76l-3.4-4H98.84v4H97.49V311h2.85a8.29,8.29,0,0,1,1.54.12,3.23,3.23,0,0,1,1.1.42,2.71,2.71,0,0,1,.87.88,2.58,2.58,0,0,1,.31,1.34,3,3,0,0,1-.55,1.85,3.38,3.38,0,0,1-1.53,1.11Zm-3.17-7.31a1.86,1.86,0,0,0-.15-.77,1.34,1.34,0,0,0-.51-.58,1.83,1.83,0,0,0-.7-.27,4.37,4.37,0,0,0-.95-.08H98.84V316h1.37a5.24,5.24,0,0,0,1.12-.11,1.85,1.85,0,0,0,.81-.42,1.76,1.76,0,0,0,.46-.66A2.61,2.61,0,0,0,102.74,313.81Z" transform="translate(0 -269)" style="fill:#f2f2f2"/><path d="M120.74,316.05a5.26,5.26,0,0,1-.6,2.51,4.47,4.47,0,0,1-1.61,1.75,4.77,4.77,0,0,1-1.56.62,10.56,10.56,0,0,1-2.26.19h-2.57V311h2.55a10.67,10.67,0,0,1,2.37.21,5.31,5.31,0,0,1,1.48.59,4.49,4.49,0,0,1,1.62,1.73A5.33,5.33,0,0,1,120.74,316.05Zm-1.41,0a4.41,4.41,0,0,0-.42-2,3,3,0,0,0-1.24-1.29,4.22,4.22,0,0,0-1.28-.48,8.42,8.42,0,0,0-1.62-.13H113.5V320h1.27a8.52,8.52,0,0,0,1.7-.14,3.84,3.84,0,0,0,1.34-.53A3.05,3.05,0,0,0,119,318,4.63,4.63,0,0,0,119.33,316Z" transform="translate(0 -269)" style="fill:#f2f2f2"/><path d="M129.64,321.12h-6.71V311h6.71v1.2h-5.36v2.79h5.36v1.2h-5.36v3.78h5.36Z" transform="translate(0 -269)" style="fill:#f2f2f2"/><path d="M143.15,321.12h-6.44V311h1.35v9h5.09Z" transform="translate(0 -269)" style="fill:#f2f2f2"/><path d="M151.2,321.12h-6.7V311h6.7v1.2h-5.35v2.79h5.35v1.2h-5.35v3.78h5.35Z" transform="translate(0 -269)" style="fill:#f2f2f2"/><path d="M160.56,311,157,316.66v4.46h-1.35V316.8L152,311h1.5l2.78,4.55,2.81-4.55Z" transform="translate(0 -269)" style="fill:#f2f2f2"/><rect x="240.66" width="161" height="74" style="fill:#919191"/><path d="M282,306.05a5.26,5.26,0,0,1-.6,2.51,4.47,4.47,0,0,1-1.61,1.75,4.77,4.77,0,0,1-1.56.62,10.56,10.56,0,0,1-2.26.19h-2.57V301H276a10.67,10.67,0,0,1,2.37.21,5.31,5.31,0,0,1,1.48.59,4.49,4.49,0,0,1,1.62,1.73A5.33,5.33,0,0,1,282,306.05Zm-1.41,0a4.41,4.41,0,0,0-.42-2,3,3,0,0,0-1.24-1.29,4.22,4.22,0,0,0-1.28-.48,8.42,8.42,0,0,0-1.62-.13h-1.27V310h1.27a8.69,8.69,0,0,0,1.71-.14,3.87,3.87,0,0,0,1.33-.53,3.05,3.05,0,0,0,1.14-1.28A4.63,4.63,0,0,0,280.62,306Z" transform="translate(0 -269)" style="fill:#f2f2f2"/><path d="M290.93,311.12h-6.71V301h6.71v1.2h-5.35v2.79h5.35v1.2h-5.35v3.78h5.35Z" transform="translate(0 -269)" style="fill:#f2f2f2"/><path d="M300.94,310.39l-.68.3a7.14,7.14,0,0,1-.8.31,9.36,9.36,0,0,1-.91.22,5.85,5.85,0,0,1-1.07.09,6.16,6.16,0,0,1-2-.31,4,4,0,0,1-1.57-1,4.42,4.42,0,0,1-1-1.65,6.8,6.8,0,0,1-.37-2.32,6.56,6.56,0,0,1,.36-2.25,4.73,4.73,0,0,1,1-1.68,4.37,4.37,0,0,1,1.57-1,5.82,5.82,0,0,1,2-.35,7,7,0,0,1,1.64.2,8.81,8.81,0,0,1,1.82.7v1.6h-.11a5.87,5.87,0,0,0-1.66-1,4.8,4.8,0,0,0-1.78-.32,3.66,3.66,0,0,0-1.39.25,2.94,2.94,0,0,0-1.1.77,3.57,3.57,0,0,0-.74,1.3,5.81,5.81,0,0,0-.26,1.81,5.3,5.3,0,0,0,.29,1.84,3.67,3.67,0,0,0,.75,1.26,2.91,2.91,0,0,0,1.12.75,3.76,3.76,0,0,0,1.35.24,5,5,0,0,0,1.83-.33,5.38,5.38,0,0,0,1.6-1h.1Z" transform="translate(0 -269)" style="fill:#f2f2f2"/><path d="M311.27,311.12h-1.76l-3.4-4H304.2v4h-1.35V301h2.85a8.22,8.22,0,0,1,1.54.12,3.37,3.37,0,0,1,1.11.42,2.77,2.77,0,0,1,.86.88,2.58,2.58,0,0,1,.31,1.34,3,3,0,0,1-.55,1.85,3.38,3.38,0,0,1-1.53,1.11Zm-3.16-7.31A1.86,1.86,0,0,0,308,303a1.34,1.34,0,0,0-.51-.58,1.78,1.78,0,0,0-.69-.27,4.49,4.49,0,0,0-.95-.08h-1.6V306h1.37a5.24,5.24,0,0,0,1.12-.11,1.85,1.85,0,0,0,.81-.42,1.76,1.76,0,0,0,.46-.66A2.59,2.59,0,0,0,308.11,303.81Z" transform="translate(0 -269)" style="fill:#f2f2f2"/><path d="M319.29,311.12h-6.71V301h6.71v1.2h-5.35v2.79h5.35v1.2h-5.35v3.78h5.35Z" transform="translate(0 -269)" style="fill:#f2f2f2"/><path d="M328.7,302.15h-3.64v9h-1.35v-9h-3.64V301h8.63Z" transform="translate(0 -269)" style="fill:#f2f2f2"/><path d="M337.31,302.12a4.62,4.62,0,0,1,.95,1.67,7.84,7.84,0,0,1,0,4.5,4.7,4.7,0,0,1-.95,1.66,4.06,4.06,0,0,1-1.49,1,5.19,5.19,0,0,1-2,.35,5.13,5.13,0,0,1-1.95-.36,4,4,0,0,1-1.49-1,4.66,4.66,0,0,1-.95-1.66,7.1,7.1,0,0,1-.33-2.25,7,7,0,0,1,.33-2.23,4.67,4.67,0,0,1,1-1.69,3.87,3.87,0,0,1,1.49-1,5.49,5.49,0,0,1,3.91,0A4.07,4.07,0,0,1,337.31,302.12Zm-.12,3.92a4.71,4.71,0,0,0-.89-3.06,3.29,3.29,0,0,0-4.87,0,4.71,4.71,0,0,0-.88,3.06,4.65,4.65,0,0,0,.9,3.07,3.29,3.29,0,0,0,4.84,0A4.65,4.65,0,0,0,337.19,306Z" transform="translate(0 -269)" style="fill:#f2f2f2"/><path d="M352.1,311.12h-6.44V301H347v9h5.08Z" transform="translate(0 -269)" style="fill:#f2f2f2"/><path d="M360.16,311.12h-6.7V301h6.7v1.2h-5.35v2.79h5.35v1.2h-5.35v3.78h5.35Z" transform="translate(0 -269)" style="fill:#f2f2f2"/><path d="M369.51,301l-3.58,5.71v4.46h-1.35V306.8L361,301h1.5l2.78,4.55,2.81-4.55Z" transform="translate(0 -269)" style="fill:#f2f2f2"/><rect x="480" width="161" height="74" style="fill:#919191"/><path d="M534,296.05a5.15,5.15,0,0,1-.61,2.51,4.47,4.47,0,0,1-1.61,1.75,4.71,4.71,0,0,1-1.55.62,10.62,10.62,0,0,1-2.26.19h-2.57V291H528a10.61,10.61,0,0,1,2.37.21,5.39,5.39,0,0,1,1.49.59,4.64,4.64,0,0,1,1.62,1.73A5.45,5.45,0,0,1,534,296.05Zm-1.42,0a4.54,4.54,0,0,0-.41-2,3,3,0,0,0-1.25-1.29,4.12,4.12,0,0,0-1.28-.48,8.42,8.42,0,0,0-1.62-.13h-1.27V300H528a8.62,8.62,0,0,0,1.71-.14,4,4,0,0,0,1.34-.53,3.1,3.1,0,0,0,1.13-1.28A4.48,4.48,0,0,0,532.59,296Z" transform="translate(0 -269)" style="fill:#f2f2f2"/><path d="M542.9,301.12h-6.7V291h6.7v1.2h-5.35v2.79h5.35v1.2h-5.35v3.78h5.35Z" transform="translate(0 -269)" style="fill:#f2f2f2"/><path d="M552.91,300.39l-.68.3a6.45,6.45,0,0,1-.8.31,9.14,9.14,0,0,1-.9.22,6.62,6.62,0,0,1-3.09-.22,4.05,4.05,0,0,1-1.58-1,4.28,4.28,0,0,1-1-1.65,6.57,6.57,0,0,1-.37-2.32,6.81,6.81,0,0,1,.35-2.25,4.62,4.62,0,0,1,1-1.68,4.21,4.21,0,0,1,1.57-1,5.74,5.74,0,0,1,2-.35,7,7,0,0,1,1.63.2,8.81,8.81,0,0,1,1.82.7v1.6h-.1a5.91,5.91,0,0,0-1.67-1,4.72,4.72,0,0,0-1.77-.32,3.59,3.59,0,0,0-1.39.25,3,3,0,0,0-1.11.77,3.56,3.56,0,0,0-.73,1.3,5.53,5.53,0,0,0-.26,1.81,5.08,5.08,0,0,0,.29,1.84,3.65,3.65,0,0,0,.74,1.26,3,3,0,0,0,1.12.75,3.84,3.84,0,0,0,1.35.24,5,5,0,0,0,1.83-.33,5.26,5.26,0,0,0,1.6-1h.1Z" transform="translate(0 -269)" style="fill:#f2f2f2"/><path d="M563.25,301.12h-1.76l-3.41-4h-1.9v4h-1.36V291h2.85a8.22,8.22,0,0,1,1.54.12,3.37,3.37,0,0,1,1.11.42,2.45,2.45,0,0,1,1.18,2.22,3,3,0,0,1-.56,1.85,3.41,3.41,0,0,1-1.52,1.11Zm-3.17-7.31a1.86,1.86,0,0,0-.15-.77,1.48,1.48,0,0,0-.51-.58,1.9,1.9,0,0,0-.7-.27,4.49,4.49,0,0,0-1-.08h-1.59V296h1.36a5.34,5.34,0,0,0,1.13-.11,1.9,1.9,0,0,0,.81-.42,1.73,1.73,0,0,0,.45-.66A2.59,2.59,0,0,0,560.08,293.81Z" transform="translate(0 -269)" style="fill:#f2f2f2"/><path d="M571.26,301.12h-6.7V291h6.7v1.2h-5.35v2.79h5.35v1.2h-5.35v3.78h5.35Z" transform="translate(0 -269)" style="fill:#f2f2f2"/><path d="M580.67,292.15H577v9h-1.35v-9H572V291h8.63Z" transform="translate(0 -269)" style="fill:#f2f2f2"/><path d="M589.28,292.12a4.5,4.5,0,0,1,1,1.67,7.1,7.1,0,0,1,.33,2.25,6.82,6.82,0,0,1-.34,2.25,4.55,4.55,0,0,1-1,1.66,4,4,0,0,1-1.48,1,5.27,5.27,0,0,1-2,.35,5.06,5.06,0,0,1-2-.36,4,4,0,0,1-1.5-1,4.64,4.64,0,0,1-.94-1.66,6.83,6.83,0,0,1-.33-2.25,7,7,0,0,1,.32-2.23,4.67,4.67,0,0,1,1-1.69,4,4,0,0,1,1.49-1,5.2,5.2,0,0,1,2-.36,5.07,5.07,0,0,1,2,.36A4,4,0,0,1,589.28,292.12Zm-.12,3.92a4.71,4.71,0,0,0-.89-3.06,3.27,3.27,0,0,0-4.86,0,4.71,4.71,0,0,0-.89,3.06,4.59,4.59,0,0,0,.91,3.07,3.28,3.28,0,0,0,4.83,0A4.65,4.65,0,0,0,589.16,296Z" transform="translate(0 -269)" style="fill:#f2f2f2"/><path d="M520.65,321.12h-6.44V311h1.36v9h5.08Z" transform="translate(0 -269)" style="fill:#f2f2f2"/><path d="M528.71,321.12H522V311h6.7v1.2h-5.35v2.79h5.35v1.2h-5.35v3.78h5.35Z" transform="translate(0 -269)" style="fill:#f2f2f2"/><path d="M539.35,320.37a12.52,12.52,0,0,1-1.82.67,6.9,6.9,0,0,1-1.91.28,7.17,7.17,0,0,1-2.18-.32,4.33,4.33,0,0,1-2.78-2.65,6.56,6.56,0,0,1-.38-2.32,5.15,5.15,0,0,1,1.43-3.86,5.29,5.29,0,0,1,3.91-1.41,7.77,7.77,0,0,1,1.77.21,9.5,9.5,0,0,1,2,.71v1.6h-.12c-.14-.11-.34-.25-.61-.43a7.13,7.13,0,0,0-.8-.44,5.85,5.85,0,0,0-2.42-.49,3.49,3.49,0,0,0-2.71,1.09,5,5,0,0,0,.05,6.05,3.7,3.7,0,0,0,2.83,1.09,6.54,6.54,0,0,0,1.31-.13,5.5,5.5,0,0,0,1.14-.33v-2.5h-2.73V316h4.07Z" transform="translate(0 -269)" style="fill:#f2f2f2"/><path d="M545.3,321.12h-4v-1h1.33V312h-1.33v-1h4v1H544v8.1h1.33Z" transform="translate(0 -269)" style="fill:#f2f2f2"/><path d="M555,318.22a2.78,2.78,0,0,1-.27,1.18,2.85,2.85,0,0,1-.78,1,4.07,4.07,0,0,1-1.27.68,5.37,5.37,0,0,1-1.76.25,8.44,8.44,0,0,1-2-.21,9.19,9.19,0,0,1-1.79-.6v-1.7h.09a5.57,5.57,0,0,0,1.79,1,5.9,5.9,0,0,0,1.9.35,3.53,3.53,0,0,0,2-.47,1.47,1.47,0,0,0,.7-1.26,1.35,1.35,0,0,0-.33-1,2.38,2.38,0,0,0-1-.5,10.9,10.9,0,0,0-1.11-.22c-.4-.06-.83-.14-1.27-.23a3.8,3.8,0,0,1-2-1,2.54,2.54,0,0,1-.65-1.81,2.51,2.51,0,0,1,1.08-2.09,4.38,4.38,0,0,1,2.74-.82,8.63,8.63,0,0,1,2,.21,8.4,8.4,0,0,1,1.58.5v1.6h-.09a4.6,4.6,0,0,0-1.53-.81,5.86,5.86,0,0,0-1.94-.33,3,3,0,0,0-1.74.45,1.36,1.36,0,0,0-.66,1.16,1.42,1.42,0,0,0,.33,1,2.2,2.2,0,0,0,1.15.56l1.24.23c.54.09,1,.18,1.37.28a3.48,3.48,0,0,1,1.71.91A2.38,2.38,0,0,1,555,318.22Z" transform="translate(0 -269)" style="fill:#f2f2f2"/><path d="M563.62,321.12h-6.44V311h1.35v9h5.09Z" transform="translate(0 -269)" style="fill:#f2f2f2"/><path d="M573,321.12h-1.45l-1-2.83h-4.41l-1,2.83h-1.38L567.49,311h1.8Zm-2.86-4-1.78-5-1.8,5Z" transform="translate(0 -269)" style="fill:#f2f2f2"/><path d="M581,312.15h-3.64v9H576v-9h-3.64V311H581Z" transform="translate(0 -269)" style="fill:#f2f2f2"/><path d="M585.94,321.12h-4v-1h1.33V312h-1.33v-1h4v1H584.6v8.1h1.34Z" transform="translate(0 -269)" style="fill:#f2f2f2"/><path d="M596.27,311l-3.71,10.17h-1.8L587.05,311h1.45l3.19,8.95,3.2-8.95Z" transform="translate(0 -269)" style="fill:#f2f2f2"/><path d="M605.4,312.12a4.62,4.62,0,0,1,1,1.67,7.84,7.84,0,0,1,0,4.5,4.7,4.7,0,0,1-1,1.66,4.06,4.06,0,0,1-1.49,1,5.19,5.19,0,0,1-2,.35,5.13,5.13,0,0,1-2-.36,4,4,0,0,1-1.49-1,4.66,4.66,0,0,1-1-1.66,7.1,7.1,0,0,1-.33-2.25,7,7,0,0,1,.33-2.23,4.67,4.67,0,0,1,1-1.69,3.87,3.87,0,0,1,1.49-1,5.49,5.49,0,0,1,3.91,0A4.07,4.07,0,0,1,605.4,312.12Zm-.12,3.92a4.71,4.71,0,0,0-.89-3.06,3.29,3.29,0,0,0-4.87,0,4.71,4.71,0,0,0-.88,3.06,4.65,4.65,0,0,0,.9,3.07,3.29,3.29,0,0,0,4.84,0A4.65,4.65,0,0,0,605.28,316Z" transform="translate(0 -269)" style="fill:#f2f2f2"/><line x1="796" x2="796" y2="74" style="fill:#666;stroke:gray;stroke-miterlimit:10;stroke-width:4px"/></svg>