<svg id="Capa_1" data-name="Capa 1" xmlns="http://www.w3.org/2000/svg" viewBox="0 0 906 74"><title>mapa3</title><rect width="906" height="74" style="fill:#fff"/><rect x="241" width="161" height="74" style="fill:#aec0ce"/><rect x="30" width="161" height="74" style="fill:#aec0ce"/><path d="M104.33,199.39H97.89V189.21h1.36v9h5.08Z" transform="translate(0 -157)" style="fill:#f2f2f2"/><path d="M112.39,199.39h-6.7V189.21h6.7v1.21H107v2.79h5.35v1.2H107v3.78h5.35Z" transform="translate(0 -157)" style="fill:#f2f2f2"/><path d="M121.74,189.21l-3.58,5.72v4.46h-1.35v-4.32l-3.6-5.86h1.5l2.78,4.56,2.81-4.56Z" transform="translate(0 -157)" style="fill:#f2f2f2"/><path d="M273,199.39h-6.43V189.21h1.35v9H273Z" transform="translate(0 -157)" style="fill:#f2f2f2"/><path d="M281,199.39h-6.71V189.21H281v1.21h-5.36v2.79H281v1.2h-5.36v3.78H281Z" transform="translate(0 -157)" style="fill:#f2f2f2"/><path d="M290.38,189.21l-3.59,5.72v4.46h-1.35v-4.32l-3.59-5.86h1.49l2.79,4.56,2.8-4.56Z" transform="translate(0 -157)" style="fill:#f2f2f2"/><path d="M304.29,190.38a4.62,4.62,0,0,1,1,1.68,7.1,7.1,0,0,1,.33,2.25,6.9,6.9,0,0,1-.34,2.25,4.57,4.57,0,0,1-.95,1.66,3.92,3.92,0,0,1-1.48,1,5,5,0,0,1-2,.35,5.25,5.25,0,0,1-2-.35,4.06,4.06,0,0,1-1.5-1,4.69,4.69,0,0,1-.94-1.67,7,7,0,0,1-.33-2.24,7.09,7.09,0,0,1,.32-2.24,4.84,4.84,0,0,1,1-1.69,3.92,3.92,0,0,1,1.49-1,5.2,5.2,0,0,1,2-.36,5.07,5.07,0,0,1,2,.36A4,4,0,0,1,304.29,190.38Zm-.12,3.93a4.62,4.62,0,0,0-.89-3.06,3.27,3.27,0,0,0-4.86,0,4.67,4.67,0,0,0-.89,3.06,4.56,4.56,0,0,0,.91,3.06,3.28,3.28,0,0,0,4.83,0A4.62,4.62,0,0,0,304.17,194.31Z" transform="translate(0 -157)" style="fill:#f2f2f2"/><path d="M316.15,199.39h-1.76l-3.4-4h-1.91v4h-1.35V189.21h2.85a8.29,8.29,0,0,1,1.54.12,3.12,3.12,0,0,1,1.1.43,2.61,2.61,0,0,1,.87.88,2.68,2.68,0,0,1,.31,1.34,3,3,0,0,1-.56,1.84,3.3,3.3,0,0,1-1.52,1.12ZM313,192.08a1.94,1.94,0,0,0-.15-.78,1.32,1.32,0,0,0-.51-.57,2.1,2.1,0,0,0-.7-.28,5.19,5.19,0,0,0-.95-.08h-1.59v3.85h1.37a4.63,4.63,0,0,0,1.12-.12,1.66,1.66,0,0,0,.81-.42,1.76,1.76,0,0,0,.46-.66A2.74,2.74,0,0,0,313,192.08Z" transform="translate(0 -157)" style="fill:#f2f2f2"/><path d="M326,198.64a13.81,13.81,0,0,1-1.82.67,7,7,0,0,1-4.09-.05,4.56,4.56,0,0,1-1.69-1,4.49,4.49,0,0,1-1.09-1.66,6.58,6.58,0,0,1-.38-2.33,5.18,5.18,0,0,1,1.42-3.85,5.33,5.33,0,0,1,3.92-1.41,7.77,7.77,0,0,1,1.77.21,9.43,9.43,0,0,1,1.95.7v1.61h-.12c-.14-.11-.35-.25-.61-.43a4.92,4.92,0,0,0-.8-.44,6.38,6.38,0,0,0-1.07-.36,6.15,6.15,0,0,0-1.35-.14,3.5,3.5,0,0,0-2.71,1.1,5,5,0,0,0,.05,6,3.71,3.71,0,0,0,2.83,1.1,6.54,6.54,0,0,0,1.31-.13,6.19,6.19,0,0,0,1.14-.33v-2.5h-2.73v-1.19H326Z" transform="translate(0 -157)" style="fill:#f2f2f2"/><path d="M336.34,199.39H334.9l-1-2.84h-4.4l-1,2.84h-1.37l3.7-10.18h1.81Zm-2.86-4-1.78-5-1.79,5Zm0-10-1.87,2.56h-1l1.23-2.56Z" transform="translate(0 -157)" style="fill:#f2f2f2"/><path d="M345.65,199.39H344l-4.83-9.1v9.1h-1.26V189.21H340l4.41,8.32v-8.32h1.26Z" transform="translate(0 -157)" style="fill:#f2f2f2"/><path d="M352,199.39h-4v-1h1.33v-8.1h-1.33v-1h4v1h-1.33v8.1H352Z" transform="translate(0 -157)" style="fill:#f2f2f2"/><path d="M362.11,198.65l-.68.31a5.54,5.54,0,0,1-.79.3,7.14,7.14,0,0,1-.91.22,5.92,5.92,0,0,1-1.08.1,6.37,6.37,0,0,1-2-.31,4.25,4.25,0,0,1-1.58-1,4.54,4.54,0,0,1-1-1.65,6.62,6.62,0,0,1-.37-2.33,6.56,6.56,0,0,1,.36-2.25,4.35,4.35,0,0,1,1-1.67,4.29,4.29,0,0,1,1.57-1,5.53,5.53,0,0,1,2-.35,6.57,6.57,0,0,1,1.64.2,8.66,8.66,0,0,1,1.81.69v1.61H362a6.2,6.2,0,0,0-1.67-1,4.92,4.92,0,0,0-1.77-.32,3.82,3.82,0,0,0-1.39.25,3.08,3.08,0,0,0-1.1.78,3.53,3.53,0,0,0-.74,1.29,5.9,5.9,0,0,0-.26,1.81,5.36,5.36,0,0,0,.29,1.85,3.7,3.7,0,0,0,.75,1.26,3,3,0,0,0,1.12.74,3.56,3.56,0,0,0,1.35.25,5,5,0,0,0,1.83-.34,5.34,5.34,0,0,0,1.6-1h.09Z" transform="translate(0 -157)" style="fill:#f2f2f2"/><path d="M372.05,199.39h-1.44l-1-2.84h-4.4l-1,2.84h-1.37l3.7-10.18h1.81Zm-2.85-4-1.79-5-1.79,5Z" transform="translate(0 -157)" style="fill:#f2f2f2"/><rect x="480" width="161" height="74" style="fill:#aec0ce"/><rect x="716" width="161" height="74" style="fill:#aec0ce"/><path d="M511.88,199.39h-6.44V189.21h1.35v9h5.09Z" transform="translate(0 -157)" style="fill:#f2f2f2"/><path d="M519.94,199.39h-6.71V189.21h6.71v1.21h-5.35v2.79h5.35v1.2h-5.35v3.78h5.35Z" transform="translate(0 -157)" style="fill:#f2f2f2"/><path d="M529.29,189.21l-3.58,5.72v4.46h-1.35v-4.32l-3.6-5.86h1.5l2.78,4.56,2.81-4.56Z" transform="translate(0 -157)" style="fill:#f2f2f2"/><path d="M543.21,190.38a4.75,4.75,0,0,1,.95,1.68,7.1,7.1,0,0,1,.33,2.25,7.19,7.19,0,0,1-.33,2.25,4.88,4.88,0,0,1-.95,1.66,4,4,0,0,1-1.49,1,5,5,0,0,1-2,.35,5.33,5.33,0,0,1-2-.35,4.11,4.11,0,0,1-1.49-1,4.71,4.71,0,0,1-1-1.67,7,7,0,0,1-.33-2.24,7.08,7.08,0,0,1,.33-2.24,5,5,0,0,1,1-1.69,4,4,0,0,1,1.5-1,5.49,5.49,0,0,1,3.91,0A4.17,4.17,0,0,1,543.21,190.38Zm-.12,3.93a4.67,4.67,0,0,0-.89-3.06,3.29,3.29,0,0,0-4.87,0,4.67,4.67,0,0,0-.88,3.06,4.62,4.62,0,0,0,.9,3.06,3.29,3.29,0,0,0,4.84,0A4.62,4.62,0,0,0,543.09,194.31Z" transform="translate(0 -157)" style="fill:#f2f2f2"/><path d="M555.06,199.39H553.3l-3.4-4H548v4h-1.35V189.21h2.85a8.22,8.22,0,0,1,1.54.12,3.17,3.17,0,0,1,1.11.43,2.41,2.41,0,0,1,1.17,2.22,3,3,0,0,1-.55,1.84,3.33,3.33,0,0,1-1.53,1.12Zm-3.16-7.31a1.78,1.78,0,0,0-.16-.78,1.32,1.32,0,0,0-.51-.57,2,2,0,0,0-.69-.28,5.27,5.27,0,0,0-.95-.08H548v3.85h1.37a4.63,4.63,0,0,0,1.12-.12,1.66,1.66,0,0,0,.81-.42,1.76,1.76,0,0,0,.46-.66A2.5,2.5,0,0,0,551.9,192.08Z" transform="translate(0 -157)" style="fill:#f2f2f2"/><path d="M565,194.31a5.27,5.27,0,0,1-.6,2.52,4.54,4.54,0,0,1-1.61,1.75,5,5,0,0,1-1.56.62,10.52,10.52,0,0,1-2.25.19h-2.57V189.21h2.54a10.58,10.58,0,0,1,2.37.22,5,5,0,0,1,1.48.59,4.42,4.42,0,0,1,1.62,1.73A5.29,5.29,0,0,1,565,194.31Zm-1.41,0a4.33,4.33,0,0,0-.42-2,3.1,3.1,0,0,0-1.24-1.3,4.48,4.48,0,0,0-1.28-.47,8.35,8.35,0,0,0-1.62-.14h-1.27v7.86H559a9.53,9.53,0,0,0,1.71-.14,3.88,3.88,0,0,0,1.33-.54,3,3,0,0,0,1.14-1.28A4.6,4.6,0,0,0,563.56,194.29Z" transform="translate(0 -157)" style="fill:#f2f2f2"/><path d="M570.75,199.39h-4v-1h1.33v-8.1h-1.33v-1h4v1h-1.33v8.1h1.33Z" transform="translate(0 -157)" style="fill:#f2f2f2"/><path d="M580.82,199.39h-1.68l-4.82-9.1v9.1h-1.27V189.21h2.1l4.4,8.32v-8.32h1.27Z" transform="translate(0 -157)" style="fill:#f2f2f2"/><path d="M591.55,199.39h-1.44l-1-2.84h-4.4l-1,2.84h-1.37l3.7-10.18h1.81Zm-2.85-4-1.79-5-1.79,5Z" transform="translate(0 -157)" style="fill:#f2f2f2"/><path d="M601.52,199.39h-1.76l-3.4-4h-1.91v4H593.1V189.21H596a8.29,8.29,0,0,1,1.54.12,3,3,0,0,1,1.1.43,2.61,2.61,0,0,1,.87.88,2.58,2.58,0,0,1,.31,1.34,3,3,0,0,1-.56,1.84,3.25,3.25,0,0,1-1.52,1.12Zm-3.17-7.31a1.94,1.94,0,0,0-.15-.78,1.32,1.32,0,0,0-.51-.57,2,2,0,0,0-.7-.28,5.19,5.19,0,0,0-1-.08h-1.59v3.85h1.37a4.63,4.63,0,0,0,1.12-.12,1.66,1.66,0,0,0,.81-.42,1.76,1.76,0,0,0,.46-.66A2.74,2.74,0,0,0,598.35,192.08Z" transform="translate(0 -157)" style="fill:#f2f2f2"/><path d="M606.42,199.39h-4v-1h1.33v-8.1H602.4v-1h4v1h-1.33v8.1h1.33Z" transform="translate(0 -157)" style="fill:#f2f2f2"/><path d="M616.75,199.39h-1.44l-1-2.84h-4.4l-1,2.84h-1.37l3.7-10.18H613Zm-2.86-4-1.78-5-1.79,5Z" transform="translate(0 -157)" style="fill:#f2f2f2"/><path d="M757.46,187.39H751V177.21h1.36v9h5.08Z" transform="translate(0 -157)" style="fill:#f2f2f2"/><path d="M765.52,187.39h-6.7V177.21h6.7v1.21h-5.35v2.79h5.35v1.2h-5.35v3.78h5.35Z" transform="translate(0 -157)" style="fill:#f2f2f2"/><path d="M774.87,177.21l-3.58,5.72v4.46h-1.35v-4.32l-3.6-5.86h1.5l2.78,4.56,2.81-4.56Z" transform="translate(0 -157)" style="fill:#f2f2f2"/><path d="M787.91,187.39H781.2V177.21h6.71v1.21h-5.35v2.79h5.35v1.2h-5.35v3.78h5.35Z" transform="translate(0 -157)" style="fill:#f2f2f2"/><path d="M797.45,184.49a2.74,2.74,0,0,1-.27,1.17,2.91,2.91,0,0,1-.78,1,4.07,4.07,0,0,1-1.27.68,5.65,5.65,0,0,1-1.76.25,8.59,8.59,0,0,1-2-.21,10.15,10.15,0,0,1-1.78-.61v-1.69h.09a5.57,5.57,0,0,0,1.79,1,5.86,5.86,0,0,0,1.9.35,3.49,3.49,0,0,0,2-.47,1.46,1.46,0,0,0,.7-1.26,1.34,1.34,0,0,0-.33-1,2.18,2.18,0,0,0-1-.5,8.89,8.89,0,0,0-1.12-.22c-.39-.06-.82-.14-1.26-.23a3.73,3.73,0,0,1-2-1,2.68,2.68,0,0,1,.43-3.9,4.38,4.38,0,0,1,2.74-.82,9.32,9.32,0,0,1,2,.2,9.47,9.47,0,0,1,1.58.51v1.6H797a4.79,4.79,0,0,0-1.53-.82,6.12,6.12,0,0,0-1.94-.32,3.07,3.07,0,0,0-1.75.45,1.35,1.35,0,0,0-.65,1.16,1.43,1.43,0,0,0,.32,1,2.28,2.28,0,0,0,1.16.55c.29.07.71.14,1.24.23s1,.19,1.37.28a3.65,3.65,0,0,1,1.71.91A2.42,2.42,0,0,1,797.45,184.49Z" transform="translate(0 -157)" style="fill:#f2f2f2"/><path d="M806.89,178.42h-3.64v9H801.9v-9h-3.64v-1.21h8.63Z" transform="translate(0 -157)" style="fill:#f2f2f2"/><path d="M815.46,187.39H814l-1-2.84h-4.4l-1,2.84h-1.38L810,177.21h1.8Zm-2.86-4-1.78-5-1.79,5Z" transform="translate(0 -157)" style="fill:#f2f2f2"/><path d="M823.44,178.42h-3.63v9h-1.36v-9h-3.63v-1.21h8.62Z" transform="translate(0 -157)" style="fill:#f2f2f2"/><path d="M832,187.39h-1.45l-1-2.84h-4.41l-1,2.84H822.8l3.71-10.18h1.8Zm-2.86-4-1.79-5-1.79,5Z" transform="translate(0 -157)" style="fill:#f2f2f2"/><path d="M840,187.39h-6.44V177.21h1.35v9H840Z" transform="translate(0 -157)" style="fill:#f2f2f2"/><path d="M845.87,176.75,841,189.47h-1.18l4.88-12.72Z" transform="translate(0 -157)" style="fill:#f2f2f2"/><path d="M741.92,207.39h-6.43V197.21h1.35v9h5.08Z" transform="translate(0 -157)" style="fill:#f2f2f2"/><path d="M750,207.39h-6.7V197.21H750v1.21h-5.35v2.79H750v1.2h-5.35v3.78H750Z" transform="translate(0 -157)" style="fill:#f2f2f2"/><path d="M759.34,197.21l-3.59,5.72v4.46H754.4v-4.32l-3.6-5.86h1.5l2.78,4.56,2.81-4.56Z" transform="translate(0 -157)" style="fill:#f2f2f2"/><path d="M773.69,207.39h-1.44l-1-2.84h-4.4l-1,2.84h-1.37l3.7-10.18H770Zm-2.86-4-1.78-5-1.79,5Z" transform="translate(0 -157)" style="fill:#f2f2f2"/><path d="M782.83,203.3a6.87,6.87,0,0,1-.24,1.93,3.17,3.17,0,0,1-.8,1.38,3.12,3.12,0,0,1-1.23.75,5.1,5.1,0,0,1-1.64.24,5,5,0,0,1-1.67-.25,3.21,3.21,0,0,1-1.19-.74,3.28,3.28,0,0,1-.8-1.36,6.83,6.83,0,0,1-.24-1.95v-6.09h1.35v6.16a6.38,6.38,0,0,0,.11,1.31,2.84,2.84,0,0,0,.38.87,1.93,1.93,0,0,0,.82.67,3.09,3.09,0,0,0,1.24.22,3.14,3.14,0,0,0,1.25-.22,1.92,1.92,0,0,0,.82-.67,2.81,2.81,0,0,0,.38-.9,6.12,6.12,0,0,0,.11-1.24v-6.2h1.35Z" transform="translate(0 -157)" style="fill:#f2f2f2"/><path d="M792.67,198.42H789v9h-1.36v-9h-3.63v-1.21h8.62Z" transform="translate(0 -157)" style="fill:#f2f2f2"/><path d="M801.29,198.38a4.75,4.75,0,0,1,1,1.68,7.1,7.1,0,0,1,.33,2.25,6.9,6.9,0,0,1-.34,2.25,4.71,4.71,0,0,1-.94,1.66,4,4,0,0,1-1.49,1,5,5,0,0,1-2,.35,5.33,5.33,0,0,1-2-.35,4.11,4.11,0,0,1-1.49-1,4.71,4.71,0,0,1-.95-1.67,7,7,0,0,1-.33-2.24,7.08,7.08,0,0,1,.33-2.24,4.82,4.82,0,0,1,.95-1.69,3.89,3.89,0,0,1,1.5-1,5.49,5.49,0,0,1,3.91,0A4.17,4.17,0,0,1,801.29,198.38Zm-.12,3.93a4.67,4.67,0,0,0-.89-3.06,3.29,3.29,0,0,0-4.87,0,4.67,4.67,0,0,0-.88,3.06,4.62,4.62,0,0,0,.9,3.06,3.29,3.29,0,0,0,4.84,0A4.62,4.62,0,0,0,801.17,202.31Z" transform="translate(0 -157)" style="fill:#f2f2f2"/><path d="M812.49,207.39h-1.68l-4.83-9.1v9.1h-1.26V197.21h2.1l4.4,8.32v-8.32h1.27Z" transform="translate(0 -157)" style="fill:#f2f2f2"/><path d="M822.78,198.38a4.6,4.6,0,0,1,1,1.68,6.82,6.82,0,0,1,.34,2.25,7.18,7.18,0,0,1-.34,2.25,4.72,4.72,0,0,1-1,1.66,4,4,0,0,1-1.49,1,5,5,0,0,1-2,.35,5.33,5.33,0,0,1-2-.35,4.11,4.11,0,0,1-1.49-1,4.71,4.71,0,0,1-.95-1.67,7,7,0,0,1-.33-2.24,7.08,7.08,0,0,1,.33-2.24,4.84,4.84,0,0,1,1-1.69,3.85,3.85,0,0,1,1.49-1,5.49,5.49,0,0,1,3.91,0A4.09,4.09,0,0,1,822.78,198.38Zm-.12,3.93a4.67,4.67,0,0,0-.89-3.06,3,3,0,0,0-2.43-1.08,3,3,0,0,0-2.44,1.08,4.67,4.67,0,0,0-.88,3.06,4.62,4.62,0,0,0,.9,3.06,3.29,3.29,0,0,0,4.84,0A4.62,4.62,0,0,0,822.66,202.31Z" transform="translate(0 -157)" style="fill:#f2f2f2"/><path d="M835.28,207.39h-1.36v-8.77l-2.83,6h-.8l-2.81-6v8.77h-1.27V197.21h1.85l2.71,5.67,2.63-5.67h1.88Z" transform="translate(0 -157)" style="fill:#f2f2f2"/><path d="M841.6,207.39h-4v-1h1.33v-8.1h-1.33v-1h4v1h-1.33v8.1h1.33Z" transform="translate(0 -157)" style="fill:#f2f2f2"/><path d="M851.76,206.65l-.68.31a5.11,5.11,0,0,1-.79.3,7.14,7.14,0,0,1-.91.22,5.81,5.81,0,0,1-1.07.1,6.44,6.44,0,0,1-2-.31,4.13,4.13,0,0,1-1.57-1,4.42,4.42,0,0,1-1-1.65,6.86,6.86,0,0,1-.37-2.33,6.56,6.56,0,0,1,.36-2.25,4.47,4.47,0,0,1,1-1.67,4.37,4.37,0,0,1,1.57-1,5.53,5.53,0,0,1,2-.35,6.52,6.52,0,0,1,1.64.2,8.66,8.66,0,0,1,1.81.69v1.61h-.1a6.2,6.2,0,0,0-1.67-1,4.92,4.92,0,0,0-1.77-.32,3.86,3.86,0,0,0-1.39.25,3.08,3.08,0,0,0-1.1.78,3.53,3.53,0,0,0-.74,1.29,5.9,5.9,0,0,0-.26,1.81,5.36,5.36,0,0,0,.29,1.85,3.7,3.7,0,0,0,.75,1.26,3,3,0,0,0,1.12.74,3.56,3.56,0,0,0,1.35.25,5,5,0,0,0,1.83-.34,5.34,5.34,0,0,0,1.6-1h.09Z" transform="translate(0 -157)" style="fill:#f2f2f2"/><path d="M861.7,207.39h-1.44l-1-2.84h-4.4l-1,2.84h-1.37l3.7-10.18H858Zm-2.85-4-1.79-5-1.79,5Z" transform="translate(0 -157)" style="fill:#f2f2f2"/></svg>